M48
; DRILL file {KiCad (5.1.4-0-10_14)} date Wednesday, September 25, 2019 at 10:25:34 AM
; FORMAT={-:-/ absolute / inch / decimal}
; #@! TF.CreationDate,2019-09-25T10:25:34-05:00
; #@! TF.GenerationSoftware,Kicad,Pcbnew,(5.1.4-0-10_14)
; #@! TF.FileFunction,Plated,1,2,PTH
FMAT,2
INCH
T1C0.0300
T2C0.0315
T3C0.0354
T4C0.0394
%
G90
G05
T1
X3.13Y-1.68
X3.33Y-1.68
X2.045Y-2.215
X2.245Y-2.215
X3.68Y-1.68
X3.88Y-1.68
X3.305Y-0.935
X3.38Y-0.81
X3.53Y-0.735
X3.53Y-1.185
X3.68Y-0.81
X3.755Y-0.935
X0.97Y-1.12
X1.17Y-1.12
X2.57Y-2.215
X2.77Y-2.215
X3.68Y-2.22
X3.88Y-2.22
X1.5Y-1.12
X1.7Y-1.12
X3.13Y-2.22
X3.33Y-2.22
X0.97Y-1.67
X1.17Y-1.67
X0.97Y-2.21
X1.17Y-2.21
X1.5Y-1.67
X1.7Y-1.67
X2.045Y-1.125
X2.245Y-1.125
X2.045Y-1.675
X2.245Y-1.675
X2.9Y-0.805
X2.9Y-0.905
X2.9Y-1.005
X2.57Y-1.675
X2.77Y-1.675
X1.5Y-2.21
X1.7Y-2.21
T2
X1.605Y-2.53
X1.605Y-2.93
X4.05Y-2.805
X4.05Y-3.205
X0.98Y-2.53
X0.98Y-2.93
X1.23Y-2.53
X1.23Y-2.93
X0.73Y-2.53
X0.73Y-2.93
X3.79Y-2.805
X3.53Y-2.805
X3.53Y-3.205
X3.79Y-3.205
X2.625Y-2.805
X2.625Y-3.205
X3.27Y-3.205
X3.98Y-0.77
X4.38Y-0.77
X2.23Y-2.53
X2.23Y-2.93
X4.44Y-2.805
X4.44Y-3.205
X1.73Y-2.53
X1.73Y-2.93
X3.92Y-2.805
X3.92Y-3.205
X3.27Y-2.805
X2.105Y-2.53
X2.105Y-2.93
X4.31Y-2.805
X4.31Y-3.205
X1.105Y-2.53
X3.66Y-2.805
X3.66Y-3.205
X4.145Y-1.575
X3.01Y-2.805
X3.01Y-3.205
X4.145Y-1.975
X2.75Y-3.205
X2.48Y-2.53
X3.4Y-2.805
X3.4Y-3.205
X4.18Y-2.805
X4.18Y-3.205
X0.855Y-2.53
X0.855Y-2.93
X2.48Y-2.93
X2.75Y-2.805
X1.105Y-2.93
X1.355Y-2.53
X1.355Y-2.93
X3.98Y-0.94
X4.38Y-0.94
X1.98Y-2.53
X1.98Y-2.93
X1.855Y-2.53
X1.855Y-2.93
X1.48Y-2.53
X1.48Y-2.93
X2.88Y-2.805
X2.355Y-2.53
X2.355Y-2.93
X2.88Y-3.205
X3.14Y-2.805
X3.14Y-3.205
T3
X2.62Y-1.435
X2.72Y-1.435
X1.55Y-1.43
X1.65Y-1.43
X3.175Y-1.44
X1.025Y-1.975
X3.275Y-1.44
X1.125Y-1.975
X1.02Y-0.88
X1.12Y-0.88
X2.09Y-0.885
X2.19Y-0.885
X1.015Y-1.43
X1.115Y-1.43
X2.1Y-1.435
X2.2Y-1.435
X1.55Y-0.88
X1.65Y-0.88
X3.73Y-1.44
X3.83Y-1.44
X3.18Y-1.985
X3.28Y-1.985
X2.62Y-1.98
X2.72Y-1.98
X1.55Y-1.975
X1.65Y-1.975
X2.095Y-1.98
X2.195Y-1.98
X3.73Y-1.985
X3.83Y-1.985
T4
X4.0431Y-1.39
X4.24Y-1.39
X4.43Y-1.17
X4.43Y-1.27
X4.43Y-1.37
X4.43Y-1.47
X4.43Y-1.57
X4.1416Y-1.1931
X4.43Y-2.085
X0.895Y-3.16
X0.995Y-3.16
X1.095Y-3.16
X1.195Y-3.16
X1.295Y-3.16
X1.395Y-3.16
X1.495Y-3.16
X1.595Y-3.16
X1.695Y-3.16
X1.795Y-3.16
X1.895Y-3.16
X1.995Y-3.16
X2.095Y-3.16
X2.195Y-3.16
X2.295Y-3.16
X2.84Y-2.575
X2.94Y-2.575
X3.04Y-2.575
X3.14Y-2.575
X3.24Y-2.575
X3.34Y-2.575
X3.44Y-2.575
X3.54Y-2.575
X4.435Y-1.875
X3.64Y-2.575
X3.74Y-2.575
X3.84Y-2.575
X3.94Y-2.575
X4.04Y-2.575
X4.14Y-2.575
X4.24Y-2.575
X4.43Y-2.3
X4.43Y-2.4
X4.43Y-1.67
T0
M30
