G04 #@! TF.GenerationSoftware,KiCad,Pcbnew,(5.1.4-0-10_14)*
G04 #@! TF.CreationDate,2019-09-25T10:25:20-05:00*
G04 #@! TF.ProjectId,midi_footswitch,6d696469-5f66-46f6-9f74-737769746368,rev?*
G04 #@! TF.SameCoordinates,Original*
G04 #@! TF.FileFunction,Legend,Top*
G04 #@! TF.FilePolarity,Positive*
%FSLAX46Y46*%
G04 Gerber Fmt 4.6, Leading zero omitted, Abs format (unit mm)*
G04 Created by KiCad (PCBNEW (5.1.4-0-10_14)) date 2019-09-25 10:25:20*
%MOMM*%
%LPD*%
G04 APERTURE LIST*
%ADD10C,0.120000*%
%ADD11C,0.150000*%
G04 APERTURE END LIST*
D10*
X108406000Y-36716000D02*
X106986000Y-36716000D01*
X106986000Y-36516000D02*
X103406000Y-36516000D01*
X103406000Y-36516000D02*
X103406000Y-36716000D01*
X103406000Y-36716000D02*
X101986000Y-36716000D01*
X101986000Y-36716000D02*
X101986000Y-36516000D01*
X105706000Y-29496000D02*
X107196000Y-29496000D01*
X108506000Y-30806000D02*
X108506000Y-34346000D01*
X101886000Y-34786000D02*
X101886000Y-30806000D01*
X103196000Y-29496000D02*
X104686000Y-29496000D01*
X107196000Y-29496000D02*
G75*
G02X108506000Y-30806000I0J-1310000D01*
G01*
X101886000Y-30806000D02*
G75*
G02X103196000Y-29496000I1310000J0D01*
G01*
X106986000Y-36516000D02*
X106986000Y-36716000D01*
X108406000Y-36716000D02*
X108406000Y-36516000D01*
X108406000Y-36516000D02*
X108506000Y-36516000D01*
X108506000Y-36516000D02*
X108506000Y-36266000D01*
X101986000Y-36516000D02*
X101886000Y-36516000D01*
X101886000Y-36516000D02*
X101886000Y-35826000D01*
X96902114Y-23749000D02*
G75*
G03X96902114Y-23749000I-7240114J0D01*
G01*
X24315000Y-50164538D02*
G75*
G03X29865000Y-51709830I2990000J-462D01*
G01*
X24315000Y-50165462D02*
G75*
G02X29865000Y-48620170I2990000J462D01*
G01*
X29805000Y-50165000D02*
G75*
G03X29805000Y-50165000I-2500000J0D01*
G01*
X29865000Y-51710000D02*
X29865000Y-48620000D01*
X37650000Y-50164538D02*
G75*
G03X43200000Y-51709830I2990000J-462D01*
G01*
X37650000Y-50165462D02*
G75*
G02X43200000Y-48620170I2990000J462D01*
G01*
X43140000Y-50165000D02*
G75*
G03X43140000Y-50165000I-2500000J0D01*
G01*
X43200000Y-51710000D02*
X43200000Y-48620000D01*
X57043000Y-51837000D02*
X57043000Y-48747000D01*
X56983000Y-50292000D02*
G75*
G03X56983000Y-50292000I-2500000J0D01*
G01*
X51493000Y-50292462D02*
G75*
G02X57043000Y-48747170I2990000J462D01*
G01*
X51493000Y-50291538D02*
G75*
G03X57043000Y-51836830I2990000J-462D01*
G01*
X64828000Y-50291538D02*
G75*
G03X70378000Y-51836830I2990000J-462D01*
G01*
X64828000Y-50292462D02*
G75*
G02X70378000Y-48747170I2990000J462D01*
G01*
X70318000Y-50292000D02*
G75*
G03X70318000Y-50292000I-2500000J0D01*
G01*
X70378000Y-51837000D02*
X70378000Y-48747000D01*
X79052000Y-50418538D02*
G75*
G03X84602000Y-51963830I2990000J-462D01*
G01*
X79052000Y-50419462D02*
G75*
G02X84602000Y-48874170I2990000J462D01*
G01*
X84542000Y-50419000D02*
G75*
G03X84542000Y-50419000I-2500000J0D01*
G01*
X84602000Y-51964000D02*
X84602000Y-48874000D01*
X98572000Y-51964000D02*
X98572000Y-48874000D01*
X98512000Y-50419000D02*
G75*
G03X98512000Y-50419000I-2500000J0D01*
G01*
X93022000Y-50419462D02*
G75*
G02X98572000Y-48874170I2990000J462D01*
G01*
X93022000Y-50418538D02*
G75*
G03X98572000Y-51963830I2990000J-462D01*
G01*
X29611000Y-37867000D02*
X29611000Y-34777000D01*
X29551000Y-36322000D02*
G75*
G03X29551000Y-36322000I-2500000J0D01*
G01*
X24061000Y-36322462D02*
G75*
G02X29611000Y-34777170I2990000J462D01*
G01*
X24061000Y-36321538D02*
G75*
G03X29611000Y-37866830I2990000J-462D01*
G01*
X43200000Y-37867000D02*
X43200000Y-34777000D01*
X43140000Y-36322000D02*
G75*
G03X43140000Y-36322000I-2500000J0D01*
G01*
X37650000Y-36322462D02*
G75*
G02X43200000Y-34777170I2990000J462D01*
G01*
X37650000Y-36321538D02*
G75*
G03X43200000Y-37866830I2990000J-462D01*
G01*
X51620000Y-36448538D02*
G75*
G03X57170000Y-37993830I2990000J-462D01*
G01*
X51620000Y-36449462D02*
G75*
G02X57170000Y-34904170I2990000J462D01*
G01*
X57110000Y-36449000D02*
G75*
G03X57110000Y-36449000I-2500000J0D01*
G01*
X57170000Y-37994000D02*
X57170000Y-34904000D01*
X70378000Y-37994000D02*
X70378000Y-34904000D01*
X70318000Y-36449000D02*
G75*
G03X70318000Y-36449000I-2500000J0D01*
G01*
X64828000Y-36449462D02*
G75*
G02X70378000Y-34904170I2990000J462D01*
G01*
X64828000Y-36448538D02*
G75*
G03X70378000Y-37993830I2990000J-462D01*
G01*
X84475000Y-38121000D02*
X84475000Y-35031000D01*
X84415000Y-36576000D02*
G75*
G03X84415000Y-36576000I-2500000J0D01*
G01*
X78925000Y-36576462D02*
G75*
G02X84475000Y-35031170I2990000J462D01*
G01*
X78925000Y-36575538D02*
G75*
G03X84475000Y-38120830I2990000J-462D01*
G01*
X93022000Y-36575538D02*
G75*
G03X98572000Y-38120830I2990000J-462D01*
G01*
X93022000Y-36576462D02*
G75*
G02X98572000Y-35031170I2990000J462D01*
G01*
X98512000Y-36576000D02*
G75*
G03X98512000Y-36576000I-2500000J0D01*
G01*
X98572000Y-38121000D02*
X98572000Y-35031000D01*
X24188000Y-22351538D02*
G75*
G03X29738000Y-23896830I2990000J-462D01*
G01*
X24188000Y-22352462D02*
G75*
G02X29738000Y-20807170I2990000J462D01*
G01*
X29678000Y-22352000D02*
G75*
G03X29678000Y-22352000I-2500000J0D01*
G01*
X29738000Y-23897000D02*
X29738000Y-20807000D01*
X37650000Y-22351538D02*
G75*
G03X43200000Y-23896830I2990000J-462D01*
G01*
X37650000Y-22352462D02*
G75*
G02X43200000Y-20807170I2990000J462D01*
G01*
X43140000Y-22352000D02*
G75*
G03X43140000Y-22352000I-2500000J0D01*
G01*
X43200000Y-23897000D02*
X43200000Y-20807000D01*
X56916000Y-24024000D02*
X56916000Y-20934000D01*
X56856000Y-22479000D02*
G75*
G03X56856000Y-22479000I-2500000J0D01*
G01*
X51366000Y-22479462D02*
G75*
G02X56916000Y-20934170I2990000J462D01*
G01*
X51366000Y-22478538D02*
G75*
G03X56916000Y-24023830I2990000J-462D01*
G01*
X21403000Y-81594000D02*
X21403000Y-80264000D01*
X22733000Y-81594000D02*
X21403000Y-81594000D01*
X24003000Y-81594000D02*
X24003000Y-78934000D01*
X24003000Y-78934000D02*
X59623000Y-78934000D01*
X24003000Y-81594000D02*
X59623000Y-81594000D01*
X59623000Y-81594000D02*
X59623000Y-78934000D01*
X111192000Y-57090000D02*
X112522000Y-57090000D01*
X111192000Y-58420000D02*
X111192000Y-57090000D01*
X111192000Y-59690000D02*
X113852000Y-59690000D01*
X113852000Y-59690000D02*
X113852000Y-62290000D01*
X111192000Y-59690000D02*
X111192000Y-62290000D01*
X111192000Y-62290000D02*
X113852000Y-62290000D01*
X109026000Y-66735000D02*
X109026000Y-64075000D01*
X73406000Y-66735000D02*
X109026000Y-66735000D01*
X73406000Y-64075000D02*
X109026000Y-64075000D01*
X73406000Y-66735000D02*
X73406000Y-64075000D01*
X72136000Y-66735000D02*
X70806000Y-66735000D01*
X70806000Y-66735000D02*
X70806000Y-65405000D01*
X111319000Y-48955000D02*
X113979000Y-48955000D01*
X111319000Y-48895000D02*
X111319000Y-48955000D01*
X113979000Y-48895000D02*
X113979000Y-48955000D01*
X111319000Y-48895000D02*
X113979000Y-48895000D01*
X111319000Y-47625000D02*
X111319000Y-46295000D01*
X111319000Y-46295000D02*
X112649000Y-46295000D01*
X111192000Y-28388000D02*
X112522000Y-28388000D01*
X111192000Y-29718000D02*
X111192000Y-28388000D01*
X111192000Y-30988000D02*
X113852000Y-30988000D01*
X113852000Y-30988000D02*
X113852000Y-43748000D01*
X111192000Y-30988000D02*
X111192000Y-43748000D01*
X111192000Y-43748000D02*
X113852000Y-43748000D01*
X74930000Y-17907000D02*
X74930000Y-19177000D01*
X72390000Y-17907000D02*
X74930000Y-17907000D01*
X72390000Y-19177000D02*
X72390000Y-17907000D01*
X69850000Y-19177000D02*
X69850000Y-26797000D01*
X74930000Y-19177000D02*
X69850000Y-19177000D01*
X74930000Y-26797000D02*
X74930000Y-19177000D01*
X69850000Y-26797000D02*
X74930000Y-26797000D01*
X111192000Y-51629000D02*
X112522000Y-51629000D01*
X111192000Y-52959000D02*
X111192000Y-51629000D01*
X111192000Y-54229000D02*
X113852000Y-54229000D01*
X113852000Y-54229000D02*
X113852000Y-54289000D01*
X111192000Y-54229000D02*
X111192000Y-54289000D01*
X111192000Y-54289000D02*
X113852000Y-54289000D01*
X19912000Y-66072000D02*
X17172000Y-66072000D01*
X17172000Y-66072000D02*
X17172000Y-72612000D01*
X17172000Y-72612000D02*
X19912000Y-72612000D01*
X19912000Y-72612000D02*
X19912000Y-66072000D01*
X18542000Y-65302000D02*
X18542000Y-66072000D01*
X18542000Y-73382000D02*
X18542000Y-72612000D01*
X21717000Y-73382000D02*
X21717000Y-72612000D01*
X21717000Y-65302000D02*
X21717000Y-66072000D01*
X23087000Y-72612000D02*
X23087000Y-66072000D01*
X20347000Y-72612000D02*
X23087000Y-72612000D01*
X20347000Y-66072000D02*
X20347000Y-72612000D01*
X23087000Y-66072000D02*
X20347000Y-66072000D01*
X26262000Y-66072000D02*
X23522000Y-66072000D01*
X23522000Y-66072000D02*
X23522000Y-72612000D01*
X23522000Y-72612000D02*
X26262000Y-72612000D01*
X26262000Y-72612000D02*
X26262000Y-66072000D01*
X24892000Y-65302000D02*
X24892000Y-66072000D01*
X24892000Y-73382000D02*
X24892000Y-72612000D01*
X28067000Y-73382000D02*
X28067000Y-72612000D01*
X28067000Y-65302000D02*
X28067000Y-66072000D01*
X29437000Y-72612000D02*
X29437000Y-66072000D01*
X26697000Y-72612000D02*
X29437000Y-72612000D01*
X26697000Y-66072000D02*
X26697000Y-72612000D01*
X29437000Y-66072000D02*
X26697000Y-66072000D01*
X32612000Y-66072000D02*
X29872000Y-66072000D01*
X29872000Y-66072000D02*
X29872000Y-72612000D01*
X29872000Y-72612000D02*
X32612000Y-72612000D01*
X32612000Y-72612000D02*
X32612000Y-66072000D01*
X31242000Y-65302000D02*
X31242000Y-66072000D01*
X31242000Y-73382000D02*
X31242000Y-72612000D01*
X34417000Y-73382000D02*
X34417000Y-72612000D01*
X34417000Y-65302000D02*
X34417000Y-66072000D01*
X35787000Y-72612000D02*
X35787000Y-66072000D01*
X33047000Y-72612000D02*
X35787000Y-72612000D01*
X33047000Y-66072000D02*
X33047000Y-72612000D01*
X35787000Y-66072000D02*
X33047000Y-66072000D01*
X38962000Y-66072000D02*
X36222000Y-66072000D01*
X36222000Y-66072000D02*
X36222000Y-72612000D01*
X36222000Y-72612000D02*
X38962000Y-72612000D01*
X38962000Y-72612000D02*
X38962000Y-66072000D01*
X37592000Y-65302000D02*
X37592000Y-66072000D01*
X37592000Y-73382000D02*
X37592000Y-72612000D01*
X40767000Y-73382000D02*
X40767000Y-72612000D01*
X40767000Y-65302000D02*
X40767000Y-66072000D01*
X42137000Y-72612000D02*
X42137000Y-66072000D01*
X39397000Y-72612000D02*
X42137000Y-72612000D01*
X39397000Y-66072000D02*
X39397000Y-72612000D01*
X42137000Y-66072000D02*
X39397000Y-66072000D01*
X45312000Y-66072000D02*
X42572000Y-66072000D01*
X42572000Y-66072000D02*
X42572000Y-72612000D01*
X42572000Y-72612000D02*
X45312000Y-72612000D01*
X45312000Y-72612000D02*
X45312000Y-66072000D01*
X43942000Y-65302000D02*
X43942000Y-66072000D01*
X43942000Y-73382000D02*
X43942000Y-72612000D01*
X47117000Y-73382000D02*
X47117000Y-72612000D01*
X47117000Y-65302000D02*
X47117000Y-66072000D01*
X48487000Y-72612000D02*
X48487000Y-66072000D01*
X45747000Y-72612000D02*
X48487000Y-72612000D01*
X45747000Y-66072000D02*
X45747000Y-72612000D01*
X48487000Y-66072000D02*
X45747000Y-66072000D01*
X109442000Y-20928000D02*
X109442000Y-18188000D01*
X109442000Y-18188000D02*
X102902000Y-18188000D01*
X102902000Y-18188000D02*
X102902000Y-20928000D01*
X102902000Y-20928000D02*
X109442000Y-20928000D01*
X110212000Y-19558000D02*
X109442000Y-19558000D01*
X102132000Y-19558000D02*
X102902000Y-19558000D01*
X102132000Y-23876000D02*
X102902000Y-23876000D01*
X110212000Y-23876000D02*
X109442000Y-23876000D01*
X102902000Y-25246000D02*
X109442000Y-25246000D01*
X102902000Y-22506000D02*
X102902000Y-25246000D01*
X109442000Y-22506000D02*
X102902000Y-22506000D01*
X109442000Y-25246000D02*
X109442000Y-22506000D01*
X68045000Y-73057000D02*
X65305000Y-73057000D01*
X65305000Y-73057000D02*
X65305000Y-79597000D01*
X65305000Y-79597000D02*
X68045000Y-79597000D01*
X68045000Y-79597000D02*
X68045000Y-73057000D01*
X66675000Y-72287000D02*
X66675000Y-73057000D01*
X66675000Y-80367000D02*
X66675000Y-79597000D01*
X71220000Y-73057000D02*
X68480000Y-73057000D01*
X68480000Y-73057000D02*
X68480000Y-79597000D01*
X68480000Y-79597000D02*
X71220000Y-79597000D01*
X71220000Y-79597000D02*
X71220000Y-73057000D01*
X69850000Y-72287000D02*
X69850000Y-73057000D01*
X69850000Y-80367000D02*
X69850000Y-79597000D01*
X74522000Y-73057000D02*
X71782000Y-73057000D01*
X71782000Y-73057000D02*
X71782000Y-79597000D01*
X71782000Y-79597000D02*
X74522000Y-79597000D01*
X74522000Y-79597000D02*
X74522000Y-73057000D01*
X73152000Y-72287000D02*
X73152000Y-73057000D01*
X73152000Y-80367000D02*
X73152000Y-79597000D01*
X77824000Y-73057000D02*
X75084000Y-73057000D01*
X75084000Y-73057000D02*
X75084000Y-79597000D01*
X75084000Y-79597000D02*
X77824000Y-79597000D01*
X77824000Y-79597000D02*
X77824000Y-73057000D01*
X76454000Y-72287000D02*
X76454000Y-73057000D01*
X76454000Y-80367000D02*
X76454000Y-79597000D01*
X79756000Y-80367000D02*
X79756000Y-79597000D01*
X79756000Y-72287000D02*
X79756000Y-73057000D01*
X81126000Y-79597000D02*
X81126000Y-73057000D01*
X78386000Y-79597000D02*
X81126000Y-79597000D01*
X78386000Y-73057000D02*
X78386000Y-79597000D01*
X81126000Y-73057000D02*
X78386000Y-73057000D01*
X83058000Y-80367000D02*
X83058000Y-79597000D01*
X83058000Y-72287000D02*
X83058000Y-73057000D01*
X84428000Y-79597000D02*
X84428000Y-73057000D01*
X81688000Y-79597000D02*
X84428000Y-79597000D01*
X81688000Y-73057000D02*
X81688000Y-79597000D01*
X84428000Y-73057000D02*
X81688000Y-73057000D01*
X87730000Y-73057000D02*
X84990000Y-73057000D01*
X84990000Y-73057000D02*
X84990000Y-79597000D01*
X84990000Y-79597000D02*
X87730000Y-79597000D01*
X87730000Y-79597000D02*
X87730000Y-73057000D01*
X86360000Y-72287000D02*
X86360000Y-73057000D01*
X86360000Y-80367000D02*
X86360000Y-79597000D01*
X89662000Y-80367000D02*
X89662000Y-79597000D01*
X89662000Y-72287000D02*
X89662000Y-73057000D01*
X91032000Y-79597000D02*
X91032000Y-73057000D01*
X88292000Y-79597000D02*
X91032000Y-79597000D01*
X88292000Y-73057000D02*
X88292000Y-79597000D01*
X91032000Y-73057000D02*
X88292000Y-73057000D01*
X94334000Y-73057000D02*
X91594000Y-73057000D01*
X91594000Y-73057000D02*
X91594000Y-79597000D01*
X91594000Y-79597000D02*
X94334000Y-79597000D01*
X94334000Y-79597000D02*
X94334000Y-73057000D01*
X92964000Y-72287000D02*
X92964000Y-73057000D01*
X92964000Y-80367000D02*
X92964000Y-79597000D01*
X96266000Y-80367000D02*
X96266000Y-79597000D01*
X96266000Y-72287000D02*
X96266000Y-73057000D01*
X97636000Y-79597000D02*
X97636000Y-73057000D01*
X94896000Y-79597000D02*
X97636000Y-79597000D01*
X94896000Y-73057000D02*
X94896000Y-79597000D01*
X97636000Y-73057000D02*
X94896000Y-73057000D01*
X105283000Y-41045000D02*
X105283000Y-41815000D01*
X105283000Y-49125000D02*
X105283000Y-48355000D01*
X103913000Y-41815000D02*
X103913000Y-48355000D01*
X106653000Y-41815000D02*
X103913000Y-41815000D01*
X106653000Y-48355000D02*
X106653000Y-41815000D01*
X103913000Y-48355000D02*
X106653000Y-48355000D01*
X51662000Y-66072000D02*
X48922000Y-66072000D01*
X48922000Y-66072000D02*
X48922000Y-72612000D01*
X48922000Y-72612000D02*
X51662000Y-72612000D01*
X51662000Y-72612000D02*
X51662000Y-66072000D01*
X50292000Y-65302000D02*
X50292000Y-66072000D01*
X50292000Y-73382000D02*
X50292000Y-72612000D01*
X54837000Y-66072000D02*
X52097000Y-66072000D01*
X52097000Y-66072000D02*
X52097000Y-72612000D01*
X52097000Y-72612000D02*
X54837000Y-72612000D01*
X54837000Y-72612000D02*
X54837000Y-66072000D01*
X53467000Y-65302000D02*
X53467000Y-66072000D01*
X53467000Y-73382000D02*
X53467000Y-72612000D01*
X58012000Y-66072000D02*
X55272000Y-66072000D01*
X55272000Y-66072000D02*
X55272000Y-72612000D01*
X55272000Y-72612000D02*
X58012000Y-72612000D01*
X58012000Y-72612000D02*
X58012000Y-66072000D01*
X56642000Y-65302000D02*
X56642000Y-66072000D01*
X56642000Y-73382000D02*
X56642000Y-72612000D01*
X59817000Y-73382000D02*
X59817000Y-72612000D01*
X59817000Y-65302000D02*
X59817000Y-66072000D01*
X61187000Y-72612000D02*
X61187000Y-66072000D01*
X58447000Y-72612000D02*
X61187000Y-72612000D01*
X58447000Y-66072000D02*
X58447000Y-72612000D01*
X61187000Y-66072000D02*
X58447000Y-66072000D01*
X62992000Y-73382000D02*
X62992000Y-72612000D01*
X62992000Y-65302000D02*
X62992000Y-66072000D01*
X64362000Y-72612000D02*
X64362000Y-66072000D01*
X61622000Y-72612000D02*
X64362000Y-72612000D01*
X61622000Y-66072000D02*
X61622000Y-72612000D01*
X64362000Y-66072000D02*
X61622000Y-66072000D01*
X99568000Y-80367000D02*
X99568000Y-79597000D01*
X99568000Y-72287000D02*
X99568000Y-73057000D01*
X100938000Y-79597000D02*
X100938000Y-73057000D01*
X98198000Y-79597000D02*
X100938000Y-79597000D01*
X98198000Y-73057000D02*
X98198000Y-79597000D01*
X100938000Y-73057000D02*
X98198000Y-73057000D01*
X102870000Y-80367000D02*
X102870000Y-79597000D01*
X102870000Y-72287000D02*
X102870000Y-73057000D01*
X104240000Y-79597000D02*
X104240000Y-73057000D01*
X101500000Y-79597000D02*
X104240000Y-79597000D01*
X101500000Y-73057000D02*
X101500000Y-79597000D01*
X104240000Y-73057000D02*
X101500000Y-73057000D01*
X106172000Y-80367000D02*
X106172000Y-79597000D01*
X106172000Y-72287000D02*
X106172000Y-73057000D01*
X107542000Y-79597000D02*
X107542000Y-73057000D01*
X104802000Y-79597000D02*
X107542000Y-79597000D01*
X104802000Y-73057000D02*
X104802000Y-79597000D01*
X107542000Y-73057000D02*
X104802000Y-73057000D01*
X110844000Y-73057000D02*
X108104000Y-73057000D01*
X108104000Y-73057000D02*
X108104000Y-79597000D01*
X108104000Y-79597000D02*
X110844000Y-79597000D01*
X110844000Y-79597000D02*
X110844000Y-73057000D01*
X109474000Y-72287000D02*
X109474000Y-73057000D01*
X109474000Y-80367000D02*
X109474000Y-79597000D01*
X112776000Y-80367000D02*
X112776000Y-79597000D01*
X112776000Y-72287000D02*
X112776000Y-73057000D01*
X114146000Y-79597000D02*
X114146000Y-73057000D01*
X111406000Y-79597000D02*
X114146000Y-79597000D01*
X111406000Y-73057000D02*
X111406000Y-79597000D01*
X114146000Y-73057000D02*
X111406000Y-73057000D01*
X28448000Y-53594000D02*
X28448000Y-54864000D01*
X25908000Y-53594000D02*
X28448000Y-53594000D01*
X25908000Y-54864000D02*
X25908000Y-53594000D01*
X30988000Y-54864000D02*
X23368000Y-54864000D01*
X30988000Y-57404000D02*
X30988000Y-54864000D01*
X23368000Y-57404000D02*
X30988000Y-57404000D01*
X23368000Y-54864000D02*
X23368000Y-57404000D01*
X36830000Y-54864000D02*
X36830000Y-57404000D01*
X36830000Y-57404000D02*
X44450000Y-57404000D01*
X44450000Y-57404000D02*
X44450000Y-54864000D01*
X44450000Y-54864000D02*
X36830000Y-54864000D01*
X39370000Y-54864000D02*
X39370000Y-53594000D01*
X39370000Y-53594000D02*
X41910000Y-53594000D01*
X41910000Y-53594000D02*
X41910000Y-54864000D01*
X55753000Y-53721000D02*
X55753000Y-54991000D01*
X53213000Y-53721000D02*
X55753000Y-53721000D01*
X53213000Y-54991000D02*
X53213000Y-53721000D01*
X58293000Y-54991000D02*
X50673000Y-54991000D01*
X58293000Y-57531000D02*
X58293000Y-54991000D01*
X50673000Y-57531000D02*
X58293000Y-57531000D01*
X50673000Y-54991000D02*
X50673000Y-57531000D01*
X64008000Y-54991000D02*
X64008000Y-57531000D01*
X64008000Y-57531000D02*
X71628000Y-57531000D01*
X71628000Y-57531000D02*
X71628000Y-54991000D01*
X71628000Y-54991000D02*
X64008000Y-54991000D01*
X66548000Y-54991000D02*
X66548000Y-53721000D01*
X66548000Y-53721000D02*
X69088000Y-53721000D01*
X69088000Y-53721000D02*
X69088000Y-54991000D01*
X83312000Y-53848000D02*
X83312000Y-55118000D01*
X80772000Y-53848000D02*
X83312000Y-53848000D01*
X80772000Y-55118000D02*
X80772000Y-53848000D01*
X85852000Y-55118000D02*
X78232000Y-55118000D01*
X85852000Y-57658000D02*
X85852000Y-55118000D01*
X78232000Y-57658000D02*
X85852000Y-57658000D01*
X78232000Y-55118000D02*
X78232000Y-57658000D01*
X97282000Y-53848000D02*
X97282000Y-55118000D01*
X94742000Y-53848000D02*
X97282000Y-53848000D01*
X94742000Y-55118000D02*
X94742000Y-53848000D01*
X99822000Y-55118000D02*
X92202000Y-55118000D01*
X99822000Y-57658000D02*
X99822000Y-55118000D01*
X92202000Y-57658000D02*
X99822000Y-57658000D01*
X92202000Y-55118000D02*
X92202000Y-57658000D01*
X28448000Y-39878000D02*
X28448000Y-41148000D01*
X25908000Y-39878000D02*
X28448000Y-39878000D01*
X25908000Y-41148000D02*
X25908000Y-39878000D01*
X30988000Y-41148000D02*
X23368000Y-41148000D01*
X30988000Y-43688000D02*
X30988000Y-41148000D01*
X23368000Y-43688000D02*
X30988000Y-43688000D01*
X23368000Y-41148000D02*
X23368000Y-43688000D01*
X41910000Y-39878000D02*
X41910000Y-41148000D01*
X39370000Y-39878000D02*
X41910000Y-39878000D01*
X39370000Y-41148000D02*
X39370000Y-39878000D01*
X44450000Y-41148000D02*
X36830000Y-41148000D01*
X44450000Y-43688000D02*
X44450000Y-41148000D01*
X36830000Y-43688000D02*
X44450000Y-43688000D01*
X36830000Y-41148000D02*
X36830000Y-43688000D01*
X50673000Y-41275000D02*
X50673000Y-43815000D01*
X50673000Y-43815000D02*
X58293000Y-43815000D01*
X58293000Y-43815000D02*
X58293000Y-41275000D01*
X58293000Y-41275000D02*
X50673000Y-41275000D01*
X53213000Y-41275000D02*
X53213000Y-40005000D01*
X53213000Y-40005000D02*
X55753000Y-40005000D01*
X55753000Y-40005000D02*
X55753000Y-41275000D01*
X69088000Y-40005000D02*
X69088000Y-41275000D01*
X66548000Y-40005000D02*
X69088000Y-40005000D01*
X66548000Y-41275000D02*
X66548000Y-40005000D01*
X71628000Y-41275000D02*
X64008000Y-41275000D01*
X71628000Y-43815000D02*
X71628000Y-41275000D01*
X64008000Y-43815000D02*
X71628000Y-43815000D01*
X64008000Y-41275000D02*
X64008000Y-43815000D01*
X83312000Y-40132000D02*
X83312000Y-41402000D01*
X80772000Y-40132000D02*
X83312000Y-40132000D01*
X80772000Y-41402000D02*
X80772000Y-40132000D01*
X85852000Y-41402000D02*
X78232000Y-41402000D01*
X85852000Y-43942000D02*
X85852000Y-41402000D01*
X78232000Y-43942000D02*
X85852000Y-43942000D01*
X78232000Y-41402000D02*
X78232000Y-43942000D01*
X92202000Y-41402000D02*
X92202000Y-43942000D01*
X92202000Y-43942000D02*
X99822000Y-43942000D01*
X99822000Y-43942000D02*
X99822000Y-41402000D01*
X99822000Y-41402000D02*
X92202000Y-41402000D01*
X94742000Y-41402000D02*
X94742000Y-40132000D01*
X94742000Y-40132000D02*
X97282000Y-40132000D01*
X97282000Y-40132000D02*
X97282000Y-41402000D01*
X23368000Y-27178000D02*
X23368000Y-29718000D01*
X23368000Y-29718000D02*
X30988000Y-29718000D01*
X30988000Y-29718000D02*
X30988000Y-27178000D01*
X30988000Y-27178000D02*
X23368000Y-27178000D01*
X25908000Y-27178000D02*
X25908000Y-25908000D01*
X25908000Y-25908000D02*
X28448000Y-25908000D01*
X28448000Y-25908000D02*
X28448000Y-27178000D01*
X36830000Y-27178000D02*
X36830000Y-29718000D01*
X36830000Y-29718000D02*
X44450000Y-29718000D01*
X44450000Y-29718000D02*
X44450000Y-27178000D01*
X44450000Y-27178000D02*
X36830000Y-27178000D01*
X39370000Y-27178000D02*
X39370000Y-25908000D01*
X39370000Y-25908000D02*
X41910000Y-25908000D01*
X41910000Y-25908000D02*
X41910000Y-27178000D01*
X55753000Y-26035000D02*
X55753000Y-27305000D01*
X53213000Y-26035000D02*
X55753000Y-26035000D01*
X53213000Y-27305000D02*
X53213000Y-26035000D01*
X58293000Y-27305000D02*
X50673000Y-27305000D01*
X58293000Y-29845000D02*
X58293000Y-27305000D01*
X50673000Y-29845000D02*
X58293000Y-29845000D01*
X50673000Y-27305000D02*
X50673000Y-29845000D01*
D11*
X104500761Y-38258380D02*
X104167428Y-37782190D01*
X103929333Y-38258380D02*
X103929333Y-37258380D01*
X104310285Y-37258380D01*
X104405523Y-37306000D01*
X104453142Y-37353619D01*
X104500761Y-37448857D01*
X104500761Y-37591714D01*
X104453142Y-37686952D01*
X104405523Y-37734571D01*
X104310285Y-37782190D01*
X103929333Y-37782190D01*
X104786476Y-37258380D02*
X105119809Y-38258380D01*
X105453142Y-37258380D01*
X106310285Y-38258380D02*
X105738857Y-38258380D01*
X106024571Y-38258380D02*
X106024571Y-37258380D01*
X105929333Y-37401238D01*
X105834095Y-37496476D01*
X105738857Y-37544095D01*
X89315966Y-32091380D02*
X89315966Y-32805666D01*
X89268347Y-32948523D01*
X89173109Y-33043761D01*
X89030252Y-33091380D01*
X88935014Y-33091380D01*
X90220728Y-32424714D02*
X90220728Y-33091380D01*
X89982633Y-32043761D02*
X89744538Y-32758047D01*
X90363585Y-32758047D01*
X84232714Y-25801580D02*
X83661285Y-25801580D01*
X83947000Y-25801580D02*
X83947000Y-24801580D01*
X83851761Y-24944438D01*
X83756523Y-25039676D01*
X83661285Y-25087295D01*
X86017076Y-22061514D02*
X86017076Y-22728180D01*
X85778980Y-21680561D02*
X85540885Y-22394847D01*
X86159933Y-22394847D01*
X89325485Y-19867619D02*
X89373104Y-19820000D01*
X89468342Y-19772380D01*
X89706438Y-19772380D01*
X89801676Y-19820000D01*
X89849295Y-19867619D01*
X89896914Y-19962857D01*
X89896914Y-20058095D01*
X89849295Y-20200952D01*
X89277866Y-20772380D01*
X89896914Y-20772380D01*
X93684695Y-21728180D02*
X93208504Y-21728180D01*
X93160885Y-22204371D01*
X93208504Y-22156752D01*
X93303742Y-22109133D01*
X93541838Y-22109133D01*
X93637076Y-22156752D01*
X93684695Y-22204371D01*
X93732314Y-22299609D01*
X93732314Y-22537704D01*
X93684695Y-22632942D01*
X93637076Y-22680561D01*
X93541838Y-22728180D01*
X93303742Y-22728180D01*
X93208504Y-22680561D01*
X93160885Y-22632942D01*
X95043666Y-24903180D02*
X95662714Y-24903180D01*
X95329380Y-25284133D01*
X95472238Y-25284133D01*
X95567476Y-25331752D01*
X95615095Y-25379371D01*
X95662714Y-25474609D01*
X95662714Y-25712704D01*
X95615095Y-25807942D01*
X95567476Y-25855561D01*
X95472238Y-25903180D01*
X95186523Y-25903180D01*
X95091285Y-25855561D01*
X95043666Y-25807942D01*
X88900095Y-27821000D02*
X88804857Y-27773380D01*
X88662000Y-27773380D01*
X88519142Y-27821000D01*
X88423904Y-27916238D01*
X88376285Y-28011476D01*
X88328666Y-28201952D01*
X88328666Y-28344809D01*
X88376285Y-28535285D01*
X88423904Y-28630523D01*
X88519142Y-28725761D01*
X88662000Y-28773380D01*
X88757238Y-28773380D01*
X88900095Y-28725761D01*
X88947714Y-28678142D01*
X88947714Y-28344809D01*
X88757238Y-28344809D01*
X89376285Y-28773380D02*
X89376285Y-27773380D01*
X89947714Y-28773380D01*
X89947714Y-27773380D01*
X90423904Y-28773380D02*
X90423904Y-27773380D01*
X90662000Y-27773380D01*
X90804857Y-27821000D01*
X90900095Y-27916238D01*
X90947714Y-28011476D01*
X90995333Y-28201952D01*
X90995333Y-28344809D01*
X90947714Y-28535285D01*
X90900095Y-28630523D01*
X90804857Y-28725761D01*
X90662000Y-28773380D01*
X90423904Y-28773380D01*
X26693904Y-46553380D02*
X26693904Y-45553380D01*
X26932000Y-45553380D01*
X27074857Y-45601000D01*
X27170095Y-45696238D01*
X27217714Y-45791476D01*
X27265333Y-45981952D01*
X27265333Y-46124809D01*
X27217714Y-46315285D01*
X27170095Y-46410523D01*
X27074857Y-46505761D01*
X26932000Y-46553380D01*
X26693904Y-46553380D01*
X28217714Y-46553380D02*
X27646285Y-46553380D01*
X27932000Y-46553380D02*
X27932000Y-45553380D01*
X27836761Y-45696238D01*
X27741523Y-45791476D01*
X27646285Y-45839095D01*
X40028904Y-46553380D02*
X40028904Y-45553380D01*
X40267000Y-45553380D01*
X40409857Y-45601000D01*
X40505095Y-45696238D01*
X40552714Y-45791476D01*
X40600333Y-45981952D01*
X40600333Y-46124809D01*
X40552714Y-46315285D01*
X40505095Y-46410523D01*
X40409857Y-46505761D01*
X40267000Y-46553380D01*
X40028904Y-46553380D01*
X40981285Y-45648619D02*
X41028904Y-45601000D01*
X41124142Y-45553380D01*
X41362238Y-45553380D01*
X41457476Y-45601000D01*
X41505095Y-45648619D01*
X41552714Y-45743857D01*
X41552714Y-45839095D01*
X41505095Y-45981952D01*
X40933666Y-46553380D01*
X41552714Y-46553380D01*
X53744904Y-46680380D02*
X53744904Y-45680380D01*
X53983000Y-45680380D01*
X54125857Y-45728000D01*
X54221095Y-45823238D01*
X54268714Y-45918476D01*
X54316333Y-46108952D01*
X54316333Y-46251809D01*
X54268714Y-46442285D01*
X54221095Y-46537523D01*
X54125857Y-46632761D01*
X53983000Y-46680380D01*
X53744904Y-46680380D01*
X54649666Y-45680380D02*
X55268714Y-45680380D01*
X54935380Y-46061333D01*
X55078238Y-46061333D01*
X55173476Y-46108952D01*
X55221095Y-46156571D01*
X55268714Y-46251809D01*
X55268714Y-46489904D01*
X55221095Y-46585142D01*
X55173476Y-46632761D01*
X55078238Y-46680380D01*
X54792523Y-46680380D01*
X54697285Y-46632761D01*
X54649666Y-46585142D01*
X67079904Y-46680380D02*
X67079904Y-45680380D01*
X67318000Y-45680380D01*
X67460857Y-45728000D01*
X67556095Y-45823238D01*
X67603714Y-45918476D01*
X67651333Y-46108952D01*
X67651333Y-46251809D01*
X67603714Y-46442285D01*
X67556095Y-46537523D01*
X67460857Y-46632761D01*
X67318000Y-46680380D01*
X67079904Y-46680380D01*
X68508476Y-46013714D02*
X68508476Y-46680380D01*
X68270380Y-45632761D02*
X68032285Y-46347047D01*
X68651333Y-46347047D01*
X81303904Y-46807380D02*
X81303904Y-45807380D01*
X81542000Y-45807380D01*
X81684857Y-45855000D01*
X81780095Y-45950238D01*
X81827714Y-46045476D01*
X81875333Y-46235952D01*
X81875333Y-46378809D01*
X81827714Y-46569285D01*
X81780095Y-46664523D01*
X81684857Y-46759761D01*
X81542000Y-46807380D01*
X81303904Y-46807380D01*
X82780095Y-45807380D02*
X82303904Y-45807380D01*
X82256285Y-46283571D01*
X82303904Y-46235952D01*
X82399142Y-46188333D01*
X82637238Y-46188333D01*
X82732476Y-46235952D01*
X82780095Y-46283571D01*
X82827714Y-46378809D01*
X82827714Y-46616904D01*
X82780095Y-46712142D01*
X82732476Y-46759761D01*
X82637238Y-46807380D01*
X82399142Y-46807380D01*
X82303904Y-46759761D01*
X82256285Y-46712142D01*
X95273904Y-46807380D02*
X95273904Y-45807380D01*
X95512000Y-45807380D01*
X95654857Y-45855000D01*
X95750095Y-45950238D01*
X95797714Y-46045476D01*
X95845333Y-46235952D01*
X95845333Y-46378809D01*
X95797714Y-46569285D01*
X95750095Y-46664523D01*
X95654857Y-46759761D01*
X95512000Y-46807380D01*
X95273904Y-46807380D01*
X96702476Y-45807380D02*
X96512000Y-45807380D01*
X96416761Y-45855000D01*
X96369142Y-45902619D01*
X96273904Y-46045476D01*
X96226285Y-46235952D01*
X96226285Y-46616904D01*
X96273904Y-46712142D01*
X96321523Y-46759761D01*
X96416761Y-46807380D01*
X96607238Y-46807380D01*
X96702476Y-46759761D01*
X96750095Y-46712142D01*
X96797714Y-46616904D01*
X96797714Y-46378809D01*
X96750095Y-46283571D01*
X96702476Y-46235952D01*
X96607238Y-46188333D01*
X96416761Y-46188333D01*
X96321523Y-46235952D01*
X96273904Y-46283571D01*
X96226285Y-46378809D01*
X26312904Y-32710380D02*
X26312904Y-31710380D01*
X26551000Y-31710380D01*
X26693857Y-31758000D01*
X26789095Y-31853238D01*
X26836714Y-31948476D01*
X26884333Y-32138952D01*
X26884333Y-32281809D01*
X26836714Y-32472285D01*
X26789095Y-32567523D01*
X26693857Y-32662761D01*
X26551000Y-32710380D01*
X26312904Y-32710380D01*
X27217666Y-31710380D02*
X27884333Y-31710380D01*
X27455761Y-32710380D01*
X39901904Y-32710380D02*
X39901904Y-31710380D01*
X40140000Y-31710380D01*
X40282857Y-31758000D01*
X40378095Y-31853238D01*
X40425714Y-31948476D01*
X40473333Y-32138952D01*
X40473333Y-32281809D01*
X40425714Y-32472285D01*
X40378095Y-32567523D01*
X40282857Y-32662761D01*
X40140000Y-32710380D01*
X39901904Y-32710380D01*
X41044761Y-32138952D02*
X40949523Y-32091333D01*
X40901904Y-32043714D01*
X40854285Y-31948476D01*
X40854285Y-31900857D01*
X40901904Y-31805619D01*
X40949523Y-31758000D01*
X41044761Y-31710380D01*
X41235238Y-31710380D01*
X41330476Y-31758000D01*
X41378095Y-31805619D01*
X41425714Y-31900857D01*
X41425714Y-31948476D01*
X41378095Y-32043714D01*
X41330476Y-32091333D01*
X41235238Y-32138952D01*
X41044761Y-32138952D01*
X40949523Y-32186571D01*
X40901904Y-32234190D01*
X40854285Y-32329428D01*
X40854285Y-32519904D01*
X40901904Y-32615142D01*
X40949523Y-32662761D01*
X41044761Y-32710380D01*
X41235238Y-32710380D01*
X41330476Y-32662761D01*
X41378095Y-32615142D01*
X41425714Y-32519904D01*
X41425714Y-32329428D01*
X41378095Y-32234190D01*
X41330476Y-32186571D01*
X41235238Y-32138952D01*
X53871904Y-32837380D02*
X53871904Y-31837380D01*
X54110000Y-31837380D01*
X54252857Y-31885000D01*
X54348095Y-31980238D01*
X54395714Y-32075476D01*
X54443333Y-32265952D01*
X54443333Y-32408809D01*
X54395714Y-32599285D01*
X54348095Y-32694523D01*
X54252857Y-32789761D01*
X54110000Y-32837380D01*
X53871904Y-32837380D01*
X54919523Y-32837380D02*
X55110000Y-32837380D01*
X55205238Y-32789761D01*
X55252857Y-32742142D01*
X55348095Y-32599285D01*
X55395714Y-32408809D01*
X55395714Y-32027857D01*
X55348095Y-31932619D01*
X55300476Y-31885000D01*
X55205238Y-31837380D01*
X55014761Y-31837380D01*
X54919523Y-31885000D01*
X54871904Y-31932619D01*
X54824285Y-32027857D01*
X54824285Y-32265952D01*
X54871904Y-32361190D01*
X54919523Y-32408809D01*
X55014761Y-32456428D01*
X55205238Y-32456428D01*
X55300476Y-32408809D01*
X55348095Y-32361190D01*
X55395714Y-32265952D01*
X66603714Y-32837380D02*
X66603714Y-31837380D01*
X66841809Y-31837380D01*
X66984666Y-31885000D01*
X67079904Y-31980238D01*
X67127523Y-32075476D01*
X67175142Y-32265952D01*
X67175142Y-32408809D01*
X67127523Y-32599285D01*
X67079904Y-32694523D01*
X66984666Y-32789761D01*
X66841809Y-32837380D01*
X66603714Y-32837380D01*
X68127523Y-32837380D02*
X67556095Y-32837380D01*
X67841809Y-32837380D02*
X67841809Y-31837380D01*
X67746571Y-31980238D01*
X67651333Y-32075476D01*
X67556095Y-32123095D01*
X68746571Y-31837380D02*
X68841809Y-31837380D01*
X68937047Y-31885000D01*
X68984666Y-31932619D01*
X69032285Y-32027857D01*
X69079904Y-32218333D01*
X69079904Y-32456428D01*
X69032285Y-32646904D01*
X68984666Y-32742142D01*
X68937047Y-32789761D01*
X68841809Y-32837380D01*
X68746571Y-32837380D01*
X68651333Y-32789761D01*
X68603714Y-32742142D01*
X68556095Y-32646904D01*
X68508476Y-32456428D01*
X68508476Y-32218333D01*
X68556095Y-32027857D01*
X68603714Y-31932619D01*
X68651333Y-31885000D01*
X68746571Y-31837380D01*
X80700714Y-32964380D02*
X80700714Y-31964380D01*
X80938809Y-31964380D01*
X81081666Y-32012000D01*
X81176904Y-32107238D01*
X81224523Y-32202476D01*
X81272142Y-32392952D01*
X81272142Y-32535809D01*
X81224523Y-32726285D01*
X81176904Y-32821523D01*
X81081666Y-32916761D01*
X80938809Y-32964380D01*
X80700714Y-32964380D01*
X82224523Y-32964380D02*
X81653095Y-32964380D01*
X81938809Y-32964380D02*
X81938809Y-31964380D01*
X81843571Y-32107238D01*
X81748333Y-32202476D01*
X81653095Y-32250095D01*
X83176904Y-32964380D02*
X82605476Y-32964380D01*
X82891190Y-32964380D02*
X82891190Y-31964380D01*
X82795952Y-32107238D01*
X82700714Y-32202476D01*
X82605476Y-32250095D01*
X94797714Y-32964380D02*
X94797714Y-31964380D01*
X95035809Y-31964380D01*
X95178666Y-32012000D01*
X95273904Y-32107238D01*
X95321523Y-32202476D01*
X95369142Y-32392952D01*
X95369142Y-32535809D01*
X95321523Y-32726285D01*
X95273904Y-32821523D01*
X95178666Y-32916761D01*
X95035809Y-32964380D01*
X94797714Y-32964380D01*
X96321523Y-32964380D02*
X95750095Y-32964380D01*
X96035809Y-32964380D02*
X96035809Y-31964380D01*
X95940571Y-32107238D01*
X95845333Y-32202476D01*
X95750095Y-32250095D01*
X96702476Y-32059619D02*
X96750095Y-32012000D01*
X96845333Y-31964380D01*
X97083428Y-31964380D01*
X97178666Y-32012000D01*
X97226285Y-32059619D01*
X97273904Y-32154857D01*
X97273904Y-32250095D01*
X97226285Y-32392952D01*
X96654857Y-32964380D01*
X97273904Y-32964380D01*
X25963714Y-18740380D02*
X25963714Y-17740380D01*
X26201809Y-17740380D01*
X26344666Y-17788000D01*
X26439904Y-17883238D01*
X26487523Y-17978476D01*
X26535142Y-18168952D01*
X26535142Y-18311809D01*
X26487523Y-18502285D01*
X26439904Y-18597523D01*
X26344666Y-18692761D01*
X26201809Y-18740380D01*
X25963714Y-18740380D01*
X27487523Y-18740380D02*
X26916095Y-18740380D01*
X27201809Y-18740380D02*
X27201809Y-17740380D01*
X27106571Y-17883238D01*
X27011333Y-17978476D01*
X26916095Y-18026095D01*
X27820857Y-17740380D02*
X28439904Y-17740380D01*
X28106571Y-18121333D01*
X28249428Y-18121333D01*
X28344666Y-18168952D01*
X28392285Y-18216571D01*
X28439904Y-18311809D01*
X28439904Y-18549904D01*
X28392285Y-18645142D01*
X28344666Y-18692761D01*
X28249428Y-18740380D01*
X27963714Y-18740380D01*
X27868476Y-18692761D01*
X27820857Y-18645142D01*
X39425714Y-18740380D02*
X39425714Y-17740380D01*
X39663809Y-17740380D01*
X39806666Y-17788000D01*
X39901904Y-17883238D01*
X39949523Y-17978476D01*
X39997142Y-18168952D01*
X39997142Y-18311809D01*
X39949523Y-18502285D01*
X39901904Y-18597523D01*
X39806666Y-18692761D01*
X39663809Y-18740380D01*
X39425714Y-18740380D01*
X40949523Y-18740380D02*
X40378095Y-18740380D01*
X40663809Y-18740380D02*
X40663809Y-17740380D01*
X40568571Y-17883238D01*
X40473333Y-17978476D01*
X40378095Y-18026095D01*
X41806666Y-18073714D02*
X41806666Y-18740380D01*
X41568571Y-17692761D02*
X41330476Y-18407047D01*
X41949523Y-18407047D01*
X53141714Y-18867380D02*
X53141714Y-17867380D01*
X53379809Y-17867380D01*
X53522666Y-17915000D01*
X53617904Y-18010238D01*
X53665523Y-18105476D01*
X53713142Y-18295952D01*
X53713142Y-18438809D01*
X53665523Y-18629285D01*
X53617904Y-18724523D01*
X53522666Y-18819761D01*
X53379809Y-18867380D01*
X53141714Y-18867380D01*
X54665523Y-18867380D02*
X54094095Y-18867380D01*
X54379809Y-18867380D02*
X54379809Y-17867380D01*
X54284571Y-18010238D01*
X54189333Y-18105476D01*
X54094095Y-18153095D01*
X55570285Y-17867380D02*
X55094095Y-17867380D01*
X55046476Y-18343571D01*
X55094095Y-18295952D01*
X55189333Y-18248333D01*
X55427428Y-18248333D01*
X55522666Y-18295952D01*
X55570285Y-18343571D01*
X55617904Y-18438809D01*
X55617904Y-18676904D01*
X55570285Y-18772142D01*
X55522666Y-18819761D01*
X55427428Y-18867380D01*
X55189333Y-18867380D01*
X55094095Y-18819761D01*
X55046476Y-18772142D01*
X19855380Y-80597333D02*
X20569666Y-80597333D01*
X20712523Y-80644952D01*
X20807761Y-80740190D01*
X20855380Y-80883047D01*
X20855380Y-80978285D01*
X20855380Y-79597333D02*
X20855380Y-80168761D01*
X20855380Y-79883047D02*
X19855380Y-79883047D01*
X19998238Y-79978285D01*
X20093476Y-80073523D01*
X20141095Y-80168761D01*
X112188666Y-55542380D02*
X112188666Y-56256666D01*
X112141047Y-56399523D01*
X112045809Y-56494761D01*
X111902952Y-56542380D01*
X111807714Y-56542380D01*
X112617238Y-55637619D02*
X112664857Y-55590000D01*
X112760095Y-55542380D01*
X112998190Y-55542380D01*
X113093428Y-55590000D01*
X113141047Y-55637619D01*
X113188666Y-55732857D01*
X113188666Y-55828095D01*
X113141047Y-55970952D01*
X112569619Y-56542380D01*
X113188666Y-56542380D01*
X69258380Y-65738333D02*
X69972666Y-65738333D01*
X70115523Y-65785952D01*
X70210761Y-65881190D01*
X70258380Y-66024047D01*
X70258380Y-66119285D01*
X69258380Y-65357380D02*
X69258380Y-64738333D01*
X69639333Y-65071666D01*
X69639333Y-64928809D01*
X69686952Y-64833571D01*
X69734571Y-64785952D01*
X69829809Y-64738333D01*
X70067904Y-64738333D01*
X70163142Y-64785952D01*
X70210761Y-64833571D01*
X70258380Y-64928809D01*
X70258380Y-65214523D01*
X70210761Y-65309761D01*
X70163142Y-65357380D01*
X112315666Y-44747380D02*
X112315666Y-45461666D01*
X112268047Y-45604523D01*
X112172809Y-45699761D01*
X112029952Y-45747380D01*
X111934714Y-45747380D01*
X113268047Y-44747380D02*
X112791857Y-44747380D01*
X112744238Y-45223571D01*
X112791857Y-45175952D01*
X112887095Y-45128333D01*
X113125190Y-45128333D01*
X113220428Y-45175952D01*
X113268047Y-45223571D01*
X113315666Y-45318809D01*
X113315666Y-45556904D01*
X113268047Y-45652142D01*
X113220428Y-45699761D01*
X113125190Y-45747380D01*
X112887095Y-45747380D01*
X112791857Y-45699761D01*
X112744238Y-45652142D01*
X112188666Y-26840380D02*
X112188666Y-27554666D01*
X112141047Y-27697523D01*
X112045809Y-27792761D01*
X111902952Y-27840380D01*
X111807714Y-27840380D01*
X113093428Y-26840380D02*
X112902952Y-26840380D01*
X112807714Y-26888000D01*
X112760095Y-26935619D01*
X112664857Y-27078476D01*
X112617238Y-27268952D01*
X112617238Y-27649904D01*
X112664857Y-27745142D01*
X112712476Y-27792761D01*
X112807714Y-27840380D01*
X112998190Y-27840380D01*
X113093428Y-27792761D01*
X113141047Y-27745142D01*
X113188666Y-27649904D01*
X113188666Y-27411809D01*
X113141047Y-27316571D01*
X113093428Y-27268952D01*
X112998190Y-27221333D01*
X112807714Y-27221333D01*
X112712476Y-27268952D01*
X112664857Y-27316571D01*
X112617238Y-27411809D01*
X75652380Y-23320333D02*
X76366666Y-23320333D01*
X76509523Y-23367952D01*
X76604761Y-23463190D01*
X76652380Y-23606047D01*
X76652380Y-23701285D01*
X75652380Y-22939380D02*
X75652380Y-22272714D01*
X76652380Y-22701285D01*
X71524761Y-20732714D02*
X71572380Y-20589857D01*
X71572380Y-20351761D01*
X71524761Y-20256523D01*
X71477142Y-20208904D01*
X71381904Y-20161285D01*
X71286666Y-20161285D01*
X71191428Y-20208904D01*
X71143809Y-20256523D01*
X71096190Y-20351761D01*
X71048571Y-20542238D01*
X71000952Y-20637476D01*
X70953333Y-20685095D01*
X70858095Y-20732714D01*
X70762857Y-20732714D01*
X70667619Y-20685095D01*
X70620000Y-20637476D01*
X70572380Y-20542238D01*
X70572380Y-20304142D01*
X70620000Y-20161285D01*
X71572380Y-22677476D02*
X71096190Y-23010809D01*
X71572380Y-23248904D02*
X70572380Y-23248904D01*
X70572380Y-22867952D01*
X70620000Y-22772714D01*
X70667619Y-22725095D01*
X70762857Y-22677476D01*
X70905714Y-22677476D01*
X71000952Y-22725095D01*
X71048571Y-22772714D01*
X71096190Y-22867952D01*
X71096190Y-23248904D01*
X70572380Y-25812714D02*
X70572380Y-25241285D01*
X71572380Y-25527000D02*
X70572380Y-25527000D01*
X112188666Y-50081380D02*
X112188666Y-50795666D01*
X112141047Y-50938523D01*
X112045809Y-51033761D01*
X111902952Y-51081380D01*
X111807714Y-51081380D01*
X112807714Y-50509952D02*
X112712476Y-50462333D01*
X112664857Y-50414714D01*
X112617238Y-50319476D01*
X112617238Y-50271857D01*
X112664857Y-50176619D01*
X112712476Y-50129000D01*
X112807714Y-50081380D01*
X112998190Y-50081380D01*
X113093428Y-50129000D01*
X113141047Y-50176619D01*
X113188666Y-50271857D01*
X113188666Y-50319476D01*
X113141047Y-50414714D01*
X113093428Y-50462333D01*
X112998190Y-50509952D01*
X112807714Y-50509952D01*
X112712476Y-50557571D01*
X112664857Y-50605190D01*
X112617238Y-50700428D01*
X112617238Y-50890904D01*
X112664857Y-50986142D01*
X112712476Y-51033761D01*
X112807714Y-51081380D01*
X112998190Y-51081380D01*
X113093428Y-51033761D01*
X113141047Y-50986142D01*
X113188666Y-50890904D01*
X113188666Y-50700428D01*
X113141047Y-50605190D01*
X113093428Y-50557571D01*
X112998190Y-50509952D01*
X18994380Y-62396666D02*
X18518190Y-62730000D01*
X18994380Y-62968095D02*
X17994380Y-62968095D01*
X17994380Y-62587142D01*
X18042000Y-62491904D01*
X18089619Y-62444285D01*
X18184857Y-62396666D01*
X18327714Y-62396666D01*
X18422952Y-62444285D01*
X18470571Y-62491904D01*
X18518190Y-62587142D01*
X18518190Y-62968095D01*
X18994380Y-61444285D02*
X18994380Y-62015714D01*
X18994380Y-61730000D02*
X17994380Y-61730000D01*
X18137238Y-61825238D01*
X18232476Y-61920476D01*
X18280095Y-62015714D01*
X22169380Y-62396666D02*
X21693190Y-62730000D01*
X22169380Y-62968095D02*
X21169380Y-62968095D01*
X21169380Y-62587142D01*
X21217000Y-62491904D01*
X21264619Y-62444285D01*
X21359857Y-62396666D01*
X21502714Y-62396666D01*
X21597952Y-62444285D01*
X21645571Y-62491904D01*
X21693190Y-62587142D01*
X21693190Y-62968095D01*
X21264619Y-62015714D02*
X21217000Y-61968095D01*
X21169380Y-61872857D01*
X21169380Y-61634761D01*
X21217000Y-61539523D01*
X21264619Y-61491904D01*
X21359857Y-61444285D01*
X21455095Y-61444285D01*
X21597952Y-61491904D01*
X22169380Y-62063333D01*
X22169380Y-61444285D01*
X25344380Y-62396666D02*
X24868190Y-62730000D01*
X25344380Y-62968095D02*
X24344380Y-62968095D01*
X24344380Y-62587142D01*
X24392000Y-62491904D01*
X24439619Y-62444285D01*
X24534857Y-62396666D01*
X24677714Y-62396666D01*
X24772952Y-62444285D01*
X24820571Y-62491904D01*
X24868190Y-62587142D01*
X24868190Y-62968095D01*
X24344380Y-62063333D02*
X24344380Y-61444285D01*
X24725333Y-61777619D01*
X24725333Y-61634761D01*
X24772952Y-61539523D01*
X24820571Y-61491904D01*
X24915809Y-61444285D01*
X25153904Y-61444285D01*
X25249142Y-61491904D01*
X25296761Y-61539523D01*
X25344380Y-61634761D01*
X25344380Y-61920476D01*
X25296761Y-62015714D01*
X25249142Y-62063333D01*
X28519380Y-62396666D02*
X28043190Y-62730000D01*
X28519380Y-62968095D02*
X27519380Y-62968095D01*
X27519380Y-62587142D01*
X27567000Y-62491904D01*
X27614619Y-62444285D01*
X27709857Y-62396666D01*
X27852714Y-62396666D01*
X27947952Y-62444285D01*
X27995571Y-62491904D01*
X28043190Y-62587142D01*
X28043190Y-62968095D01*
X27852714Y-61539523D02*
X28519380Y-61539523D01*
X27471761Y-61777619D02*
X28186047Y-62015714D01*
X28186047Y-61396666D01*
X31694380Y-62396666D02*
X31218190Y-62730000D01*
X31694380Y-62968095D02*
X30694380Y-62968095D01*
X30694380Y-62587142D01*
X30742000Y-62491904D01*
X30789619Y-62444285D01*
X30884857Y-62396666D01*
X31027714Y-62396666D01*
X31122952Y-62444285D01*
X31170571Y-62491904D01*
X31218190Y-62587142D01*
X31218190Y-62968095D01*
X30694380Y-61491904D02*
X30694380Y-61968095D01*
X31170571Y-62015714D01*
X31122952Y-61968095D01*
X31075333Y-61872857D01*
X31075333Y-61634761D01*
X31122952Y-61539523D01*
X31170571Y-61491904D01*
X31265809Y-61444285D01*
X31503904Y-61444285D01*
X31599142Y-61491904D01*
X31646761Y-61539523D01*
X31694380Y-61634761D01*
X31694380Y-61872857D01*
X31646761Y-61968095D01*
X31599142Y-62015714D01*
X34869380Y-62396666D02*
X34393190Y-62730000D01*
X34869380Y-62968095D02*
X33869380Y-62968095D01*
X33869380Y-62587142D01*
X33917000Y-62491904D01*
X33964619Y-62444285D01*
X34059857Y-62396666D01*
X34202714Y-62396666D01*
X34297952Y-62444285D01*
X34345571Y-62491904D01*
X34393190Y-62587142D01*
X34393190Y-62968095D01*
X33869380Y-61539523D02*
X33869380Y-61730000D01*
X33917000Y-61825238D01*
X33964619Y-61872857D01*
X34107476Y-61968095D01*
X34297952Y-62015714D01*
X34678904Y-62015714D01*
X34774142Y-61968095D01*
X34821761Y-61920476D01*
X34869380Y-61825238D01*
X34869380Y-61634761D01*
X34821761Y-61539523D01*
X34774142Y-61491904D01*
X34678904Y-61444285D01*
X34440809Y-61444285D01*
X34345571Y-61491904D01*
X34297952Y-61539523D01*
X34250333Y-61634761D01*
X34250333Y-61825238D01*
X34297952Y-61920476D01*
X34345571Y-61968095D01*
X34440809Y-62015714D01*
X38044380Y-62396666D02*
X37568190Y-62730000D01*
X38044380Y-62968095D02*
X37044380Y-62968095D01*
X37044380Y-62587142D01*
X37092000Y-62491904D01*
X37139619Y-62444285D01*
X37234857Y-62396666D01*
X37377714Y-62396666D01*
X37472952Y-62444285D01*
X37520571Y-62491904D01*
X37568190Y-62587142D01*
X37568190Y-62968095D01*
X37044380Y-62063333D02*
X37044380Y-61396666D01*
X38044380Y-61825238D01*
X41219380Y-62396666D02*
X40743190Y-62730000D01*
X41219380Y-62968095D02*
X40219380Y-62968095D01*
X40219380Y-62587142D01*
X40267000Y-62491904D01*
X40314619Y-62444285D01*
X40409857Y-62396666D01*
X40552714Y-62396666D01*
X40647952Y-62444285D01*
X40695571Y-62491904D01*
X40743190Y-62587142D01*
X40743190Y-62968095D01*
X40647952Y-61825238D02*
X40600333Y-61920476D01*
X40552714Y-61968095D01*
X40457476Y-62015714D01*
X40409857Y-62015714D01*
X40314619Y-61968095D01*
X40267000Y-61920476D01*
X40219380Y-61825238D01*
X40219380Y-61634761D01*
X40267000Y-61539523D01*
X40314619Y-61491904D01*
X40409857Y-61444285D01*
X40457476Y-61444285D01*
X40552714Y-61491904D01*
X40600333Y-61539523D01*
X40647952Y-61634761D01*
X40647952Y-61825238D01*
X40695571Y-61920476D01*
X40743190Y-61968095D01*
X40838428Y-62015714D01*
X41028904Y-62015714D01*
X41124142Y-61968095D01*
X41171761Y-61920476D01*
X41219380Y-61825238D01*
X41219380Y-61634761D01*
X41171761Y-61539523D01*
X41124142Y-61491904D01*
X41028904Y-61444285D01*
X40838428Y-61444285D01*
X40743190Y-61491904D01*
X40695571Y-61539523D01*
X40647952Y-61634761D01*
X44394380Y-62396666D02*
X43918190Y-62730000D01*
X44394380Y-62968095D02*
X43394380Y-62968095D01*
X43394380Y-62587142D01*
X43442000Y-62491904D01*
X43489619Y-62444285D01*
X43584857Y-62396666D01*
X43727714Y-62396666D01*
X43822952Y-62444285D01*
X43870571Y-62491904D01*
X43918190Y-62587142D01*
X43918190Y-62968095D01*
X44394380Y-61920476D02*
X44394380Y-61730000D01*
X44346761Y-61634761D01*
X44299142Y-61587142D01*
X44156285Y-61491904D01*
X43965809Y-61444285D01*
X43584857Y-61444285D01*
X43489619Y-61491904D01*
X43442000Y-61539523D01*
X43394380Y-61634761D01*
X43394380Y-61825238D01*
X43442000Y-61920476D01*
X43489619Y-61968095D01*
X43584857Y-62015714D01*
X43822952Y-62015714D01*
X43918190Y-61968095D01*
X43965809Y-61920476D01*
X44013428Y-61825238D01*
X44013428Y-61634761D01*
X43965809Y-61539523D01*
X43918190Y-61491904D01*
X43822952Y-61444285D01*
X47569380Y-62364857D02*
X47093190Y-62698190D01*
X47569380Y-62936285D02*
X46569380Y-62936285D01*
X46569380Y-62555333D01*
X46617000Y-62460095D01*
X46664619Y-62412476D01*
X46759857Y-62364857D01*
X46902714Y-62364857D01*
X46997952Y-62412476D01*
X47045571Y-62460095D01*
X47093190Y-62555333D01*
X47093190Y-62936285D01*
X47569380Y-61412476D02*
X47569380Y-61983904D01*
X47569380Y-61698190D02*
X46569380Y-61698190D01*
X46712238Y-61793428D01*
X46807476Y-61888666D01*
X46855095Y-61983904D01*
X46569380Y-60793428D02*
X46569380Y-60698190D01*
X46617000Y-60602952D01*
X46664619Y-60555333D01*
X46759857Y-60507714D01*
X46950333Y-60460095D01*
X47188428Y-60460095D01*
X47378904Y-60507714D01*
X47474142Y-60555333D01*
X47521761Y-60602952D01*
X47569380Y-60698190D01*
X47569380Y-60793428D01*
X47521761Y-60888666D01*
X47474142Y-60936285D01*
X47378904Y-60983904D01*
X47188428Y-61031523D01*
X46950333Y-61031523D01*
X46759857Y-60983904D01*
X46664619Y-60936285D01*
X46617000Y-60888666D01*
X46569380Y-60793428D01*
X105529142Y-22380380D02*
X105195809Y-21904190D01*
X104957714Y-22380380D02*
X104957714Y-21380380D01*
X105338666Y-21380380D01*
X105433904Y-21428000D01*
X105481523Y-21475619D01*
X105529142Y-21570857D01*
X105529142Y-21713714D01*
X105481523Y-21808952D01*
X105433904Y-21856571D01*
X105338666Y-21904190D01*
X104957714Y-21904190D01*
X106481523Y-22380380D02*
X105910095Y-22380380D01*
X106195809Y-22380380D02*
X106195809Y-21380380D01*
X106100571Y-21523238D01*
X106005333Y-21618476D01*
X105910095Y-21666095D01*
X107433904Y-22380380D02*
X106862476Y-22380380D01*
X107148190Y-22380380D02*
X107148190Y-21380380D01*
X107052952Y-21523238D01*
X106957714Y-21618476D01*
X106862476Y-21666095D01*
X105529142Y-26698380D02*
X105195809Y-26222190D01*
X104957714Y-26698380D02*
X104957714Y-25698380D01*
X105338666Y-25698380D01*
X105433904Y-25746000D01*
X105481523Y-25793619D01*
X105529142Y-25888857D01*
X105529142Y-26031714D01*
X105481523Y-26126952D01*
X105433904Y-26174571D01*
X105338666Y-26222190D01*
X104957714Y-26222190D01*
X106481523Y-26698380D02*
X105910095Y-26698380D01*
X106195809Y-26698380D02*
X106195809Y-25698380D01*
X106100571Y-25841238D01*
X106005333Y-25936476D01*
X105910095Y-25984095D01*
X106862476Y-25793619D02*
X106910095Y-25746000D01*
X107005333Y-25698380D01*
X107243428Y-25698380D01*
X107338666Y-25746000D01*
X107386285Y-25793619D01*
X107433904Y-25888857D01*
X107433904Y-25984095D01*
X107386285Y-26126952D01*
X106814857Y-26698380D01*
X107433904Y-26698380D01*
X67127380Y-84589857D02*
X66651190Y-84923190D01*
X67127380Y-85161285D02*
X66127380Y-85161285D01*
X66127380Y-84780333D01*
X66175000Y-84685095D01*
X66222619Y-84637476D01*
X66317857Y-84589857D01*
X66460714Y-84589857D01*
X66555952Y-84637476D01*
X66603571Y-84685095D01*
X66651190Y-84780333D01*
X66651190Y-85161285D01*
X67127380Y-83637476D02*
X67127380Y-84208904D01*
X67127380Y-83923190D02*
X66127380Y-83923190D01*
X66270238Y-84018428D01*
X66365476Y-84113666D01*
X66413095Y-84208904D01*
X66127380Y-83304142D02*
X66127380Y-82685095D01*
X66508333Y-83018428D01*
X66508333Y-82875571D01*
X66555952Y-82780333D01*
X66603571Y-82732714D01*
X66698809Y-82685095D01*
X66936904Y-82685095D01*
X67032142Y-82732714D01*
X67079761Y-82780333D01*
X67127380Y-82875571D01*
X67127380Y-83161285D01*
X67079761Y-83256523D01*
X67032142Y-83304142D01*
X70302380Y-84589857D02*
X69826190Y-84923190D01*
X70302380Y-85161285D02*
X69302380Y-85161285D01*
X69302380Y-84780333D01*
X69350000Y-84685095D01*
X69397619Y-84637476D01*
X69492857Y-84589857D01*
X69635714Y-84589857D01*
X69730952Y-84637476D01*
X69778571Y-84685095D01*
X69826190Y-84780333D01*
X69826190Y-85161285D01*
X70302380Y-83637476D02*
X70302380Y-84208904D01*
X70302380Y-83923190D02*
X69302380Y-83923190D01*
X69445238Y-84018428D01*
X69540476Y-84113666D01*
X69588095Y-84208904D01*
X69635714Y-82780333D02*
X70302380Y-82780333D01*
X69254761Y-83018428D02*
X69969047Y-83256523D01*
X69969047Y-82637476D01*
X73604380Y-84589857D02*
X73128190Y-84923190D01*
X73604380Y-85161285D02*
X72604380Y-85161285D01*
X72604380Y-84780333D01*
X72652000Y-84685095D01*
X72699619Y-84637476D01*
X72794857Y-84589857D01*
X72937714Y-84589857D01*
X73032952Y-84637476D01*
X73080571Y-84685095D01*
X73128190Y-84780333D01*
X73128190Y-85161285D01*
X73604380Y-83637476D02*
X73604380Y-84208904D01*
X73604380Y-83923190D02*
X72604380Y-83923190D01*
X72747238Y-84018428D01*
X72842476Y-84113666D01*
X72890095Y-84208904D01*
X72604380Y-82732714D02*
X72604380Y-83208904D01*
X73080571Y-83256523D01*
X73032952Y-83208904D01*
X72985333Y-83113666D01*
X72985333Y-82875571D01*
X73032952Y-82780333D01*
X73080571Y-82732714D01*
X73175809Y-82685095D01*
X73413904Y-82685095D01*
X73509142Y-82732714D01*
X73556761Y-82780333D01*
X73604380Y-82875571D01*
X73604380Y-83113666D01*
X73556761Y-83208904D01*
X73509142Y-83256523D01*
X76906380Y-84589857D02*
X76430190Y-84923190D01*
X76906380Y-85161285D02*
X75906380Y-85161285D01*
X75906380Y-84780333D01*
X75954000Y-84685095D01*
X76001619Y-84637476D01*
X76096857Y-84589857D01*
X76239714Y-84589857D01*
X76334952Y-84637476D01*
X76382571Y-84685095D01*
X76430190Y-84780333D01*
X76430190Y-85161285D01*
X76906380Y-83637476D02*
X76906380Y-84208904D01*
X76906380Y-83923190D02*
X75906380Y-83923190D01*
X76049238Y-84018428D01*
X76144476Y-84113666D01*
X76192095Y-84208904D01*
X75906380Y-82780333D02*
X75906380Y-82970809D01*
X75954000Y-83066047D01*
X76001619Y-83113666D01*
X76144476Y-83208904D01*
X76334952Y-83256523D01*
X76715904Y-83256523D01*
X76811142Y-83208904D01*
X76858761Y-83161285D01*
X76906380Y-83066047D01*
X76906380Y-82875571D01*
X76858761Y-82780333D01*
X76811142Y-82732714D01*
X76715904Y-82685095D01*
X76477809Y-82685095D01*
X76382571Y-82732714D01*
X76334952Y-82780333D01*
X76287333Y-82875571D01*
X76287333Y-83066047D01*
X76334952Y-83161285D01*
X76382571Y-83208904D01*
X76477809Y-83256523D01*
X80208380Y-84589857D02*
X79732190Y-84923190D01*
X80208380Y-85161285D02*
X79208380Y-85161285D01*
X79208380Y-84780333D01*
X79256000Y-84685095D01*
X79303619Y-84637476D01*
X79398857Y-84589857D01*
X79541714Y-84589857D01*
X79636952Y-84637476D01*
X79684571Y-84685095D01*
X79732190Y-84780333D01*
X79732190Y-85161285D01*
X80208380Y-83637476D02*
X80208380Y-84208904D01*
X80208380Y-83923190D02*
X79208380Y-83923190D01*
X79351238Y-84018428D01*
X79446476Y-84113666D01*
X79494095Y-84208904D01*
X79208380Y-83304142D02*
X79208380Y-82637476D01*
X80208380Y-83066047D01*
X83510380Y-84589857D02*
X83034190Y-84923190D01*
X83510380Y-85161285D02*
X82510380Y-85161285D01*
X82510380Y-84780333D01*
X82558000Y-84685095D01*
X82605619Y-84637476D01*
X82700857Y-84589857D01*
X82843714Y-84589857D01*
X82938952Y-84637476D01*
X82986571Y-84685095D01*
X83034190Y-84780333D01*
X83034190Y-85161285D01*
X83510380Y-83637476D02*
X83510380Y-84208904D01*
X83510380Y-83923190D02*
X82510380Y-83923190D01*
X82653238Y-84018428D01*
X82748476Y-84113666D01*
X82796095Y-84208904D01*
X82938952Y-83066047D02*
X82891333Y-83161285D01*
X82843714Y-83208904D01*
X82748476Y-83256523D01*
X82700857Y-83256523D01*
X82605619Y-83208904D01*
X82558000Y-83161285D01*
X82510380Y-83066047D01*
X82510380Y-82875571D01*
X82558000Y-82780333D01*
X82605619Y-82732714D01*
X82700857Y-82685095D01*
X82748476Y-82685095D01*
X82843714Y-82732714D01*
X82891333Y-82780333D01*
X82938952Y-82875571D01*
X82938952Y-83066047D01*
X82986571Y-83161285D01*
X83034190Y-83208904D01*
X83129428Y-83256523D01*
X83319904Y-83256523D01*
X83415142Y-83208904D01*
X83462761Y-83161285D01*
X83510380Y-83066047D01*
X83510380Y-82875571D01*
X83462761Y-82780333D01*
X83415142Y-82732714D01*
X83319904Y-82685095D01*
X83129428Y-82685095D01*
X83034190Y-82732714D01*
X82986571Y-82780333D01*
X82938952Y-82875571D01*
X86812380Y-84589857D02*
X86336190Y-84923190D01*
X86812380Y-85161285D02*
X85812380Y-85161285D01*
X85812380Y-84780333D01*
X85860000Y-84685095D01*
X85907619Y-84637476D01*
X86002857Y-84589857D01*
X86145714Y-84589857D01*
X86240952Y-84637476D01*
X86288571Y-84685095D01*
X86336190Y-84780333D01*
X86336190Y-85161285D01*
X86812380Y-83637476D02*
X86812380Y-84208904D01*
X86812380Y-83923190D02*
X85812380Y-83923190D01*
X85955238Y-84018428D01*
X86050476Y-84113666D01*
X86098095Y-84208904D01*
X86812380Y-83161285D02*
X86812380Y-82970809D01*
X86764761Y-82875571D01*
X86717142Y-82827952D01*
X86574285Y-82732714D01*
X86383809Y-82685095D01*
X86002857Y-82685095D01*
X85907619Y-82732714D01*
X85860000Y-82780333D01*
X85812380Y-82875571D01*
X85812380Y-83066047D01*
X85860000Y-83161285D01*
X85907619Y-83208904D01*
X86002857Y-83256523D01*
X86240952Y-83256523D01*
X86336190Y-83208904D01*
X86383809Y-83161285D01*
X86431428Y-83066047D01*
X86431428Y-82875571D01*
X86383809Y-82780333D01*
X86336190Y-82732714D01*
X86240952Y-82685095D01*
X90114380Y-84589857D02*
X89638190Y-84923190D01*
X90114380Y-85161285D02*
X89114380Y-85161285D01*
X89114380Y-84780333D01*
X89162000Y-84685095D01*
X89209619Y-84637476D01*
X89304857Y-84589857D01*
X89447714Y-84589857D01*
X89542952Y-84637476D01*
X89590571Y-84685095D01*
X89638190Y-84780333D01*
X89638190Y-85161285D01*
X89209619Y-84208904D02*
X89162000Y-84161285D01*
X89114380Y-84066047D01*
X89114380Y-83827952D01*
X89162000Y-83732714D01*
X89209619Y-83685095D01*
X89304857Y-83637476D01*
X89400095Y-83637476D01*
X89542952Y-83685095D01*
X90114380Y-84256523D01*
X90114380Y-83637476D01*
X89114380Y-83018428D02*
X89114380Y-82923190D01*
X89162000Y-82827952D01*
X89209619Y-82780333D01*
X89304857Y-82732714D01*
X89495333Y-82685095D01*
X89733428Y-82685095D01*
X89923904Y-82732714D01*
X90019142Y-82780333D01*
X90066761Y-82827952D01*
X90114380Y-82923190D01*
X90114380Y-83018428D01*
X90066761Y-83113666D01*
X90019142Y-83161285D01*
X89923904Y-83208904D01*
X89733428Y-83256523D01*
X89495333Y-83256523D01*
X89304857Y-83208904D01*
X89209619Y-83161285D01*
X89162000Y-83113666D01*
X89114380Y-83018428D01*
X93416380Y-84589857D02*
X92940190Y-84923190D01*
X93416380Y-85161285D02*
X92416380Y-85161285D01*
X92416380Y-84780333D01*
X92464000Y-84685095D01*
X92511619Y-84637476D01*
X92606857Y-84589857D01*
X92749714Y-84589857D01*
X92844952Y-84637476D01*
X92892571Y-84685095D01*
X92940190Y-84780333D01*
X92940190Y-85161285D01*
X92511619Y-84208904D02*
X92464000Y-84161285D01*
X92416380Y-84066047D01*
X92416380Y-83827952D01*
X92464000Y-83732714D01*
X92511619Y-83685095D01*
X92606857Y-83637476D01*
X92702095Y-83637476D01*
X92844952Y-83685095D01*
X93416380Y-84256523D01*
X93416380Y-83637476D01*
X93416380Y-82685095D02*
X93416380Y-83256523D01*
X93416380Y-82970809D02*
X92416380Y-82970809D01*
X92559238Y-83066047D01*
X92654476Y-83161285D01*
X92702095Y-83256523D01*
X96718380Y-84589857D02*
X96242190Y-84923190D01*
X96718380Y-85161285D02*
X95718380Y-85161285D01*
X95718380Y-84780333D01*
X95766000Y-84685095D01*
X95813619Y-84637476D01*
X95908857Y-84589857D01*
X96051714Y-84589857D01*
X96146952Y-84637476D01*
X96194571Y-84685095D01*
X96242190Y-84780333D01*
X96242190Y-85161285D01*
X95813619Y-84208904D02*
X95766000Y-84161285D01*
X95718380Y-84066047D01*
X95718380Y-83827952D01*
X95766000Y-83732714D01*
X95813619Y-83685095D01*
X95908857Y-83637476D01*
X96004095Y-83637476D01*
X96146952Y-83685095D01*
X96718380Y-84256523D01*
X96718380Y-83637476D01*
X95813619Y-83256523D02*
X95766000Y-83208904D01*
X95718380Y-83113666D01*
X95718380Y-82875571D01*
X95766000Y-82780333D01*
X95813619Y-82732714D01*
X95908857Y-82685095D01*
X96004095Y-82685095D01*
X96146952Y-82732714D01*
X96718380Y-83304142D01*
X96718380Y-82685095D01*
X103365380Y-45727857D02*
X102889190Y-46061190D01*
X103365380Y-46299285D02*
X102365380Y-46299285D01*
X102365380Y-45918333D01*
X102413000Y-45823095D01*
X102460619Y-45775476D01*
X102555857Y-45727857D01*
X102698714Y-45727857D01*
X102793952Y-45775476D01*
X102841571Y-45823095D01*
X102889190Y-45918333D01*
X102889190Y-46299285D01*
X102460619Y-45346904D02*
X102413000Y-45299285D01*
X102365380Y-45204047D01*
X102365380Y-44965952D01*
X102413000Y-44870714D01*
X102460619Y-44823095D01*
X102555857Y-44775476D01*
X102651095Y-44775476D01*
X102793952Y-44823095D01*
X103365380Y-45394523D01*
X103365380Y-44775476D01*
X102365380Y-44442142D02*
X102365380Y-43823095D01*
X102746333Y-44156428D01*
X102746333Y-44013571D01*
X102793952Y-43918333D01*
X102841571Y-43870714D01*
X102936809Y-43823095D01*
X103174904Y-43823095D01*
X103270142Y-43870714D01*
X103317761Y-43918333D01*
X103365380Y-44013571D01*
X103365380Y-44299285D01*
X103317761Y-44394523D01*
X103270142Y-44442142D01*
X50744380Y-62364857D02*
X50268190Y-62698190D01*
X50744380Y-62936285D02*
X49744380Y-62936285D01*
X49744380Y-62555333D01*
X49792000Y-62460095D01*
X49839619Y-62412476D01*
X49934857Y-62364857D01*
X50077714Y-62364857D01*
X50172952Y-62412476D01*
X50220571Y-62460095D01*
X50268190Y-62555333D01*
X50268190Y-62936285D01*
X49839619Y-61983904D02*
X49792000Y-61936285D01*
X49744380Y-61841047D01*
X49744380Y-61602952D01*
X49792000Y-61507714D01*
X49839619Y-61460095D01*
X49934857Y-61412476D01*
X50030095Y-61412476D01*
X50172952Y-61460095D01*
X50744380Y-62031523D01*
X50744380Y-61412476D01*
X50077714Y-60555333D02*
X50744380Y-60555333D01*
X49696761Y-60793428D02*
X50411047Y-61031523D01*
X50411047Y-60412476D01*
X53919380Y-62364857D02*
X53443190Y-62698190D01*
X53919380Y-62936285D02*
X52919380Y-62936285D01*
X52919380Y-62555333D01*
X52967000Y-62460095D01*
X53014619Y-62412476D01*
X53109857Y-62364857D01*
X53252714Y-62364857D01*
X53347952Y-62412476D01*
X53395571Y-62460095D01*
X53443190Y-62555333D01*
X53443190Y-62936285D01*
X53014619Y-61983904D02*
X52967000Y-61936285D01*
X52919380Y-61841047D01*
X52919380Y-61602952D01*
X52967000Y-61507714D01*
X53014619Y-61460095D01*
X53109857Y-61412476D01*
X53205095Y-61412476D01*
X53347952Y-61460095D01*
X53919380Y-62031523D01*
X53919380Y-61412476D01*
X52919380Y-60507714D02*
X52919380Y-60983904D01*
X53395571Y-61031523D01*
X53347952Y-60983904D01*
X53300333Y-60888666D01*
X53300333Y-60650571D01*
X53347952Y-60555333D01*
X53395571Y-60507714D01*
X53490809Y-60460095D01*
X53728904Y-60460095D01*
X53824142Y-60507714D01*
X53871761Y-60555333D01*
X53919380Y-60650571D01*
X53919380Y-60888666D01*
X53871761Y-60983904D01*
X53824142Y-61031523D01*
X57094380Y-62364857D02*
X56618190Y-62698190D01*
X57094380Y-62936285D02*
X56094380Y-62936285D01*
X56094380Y-62555333D01*
X56142000Y-62460095D01*
X56189619Y-62412476D01*
X56284857Y-62364857D01*
X56427714Y-62364857D01*
X56522952Y-62412476D01*
X56570571Y-62460095D01*
X56618190Y-62555333D01*
X56618190Y-62936285D01*
X56189619Y-61983904D02*
X56142000Y-61936285D01*
X56094380Y-61841047D01*
X56094380Y-61602952D01*
X56142000Y-61507714D01*
X56189619Y-61460095D01*
X56284857Y-61412476D01*
X56380095Y-61412476D01*
X56522952Y-61460095D01*
X57094380Y-62031523D01*
X57094380Y-61412476D01*
X56094380Y-60555333D02*
X56094380Y-60745809D01*
X56142000Y-60841047D01*
X56189619Y-60888666D01*
X56332476Y-60983904D01*
X56522952Y-61031523D01*
X56903904Y-61031523D01*
X56999142Y-60983904D01*
X57046761Y-60936285D01*
X57094380Y-60841047D01*
X57094380Y-60650571D01*
X57046761Y-60555333D01*
X56999142Y-60507714D01*
X56903904Y-60460095D01*
X56665809Y-60460095D01*
X56570571Y-60507714D01*
X56522952Y-60555333D01*
X56475333Y-60650571D01*
X56475333Y-60841047D01*
X56522952Y-60936285D01*
X56570571Y-60983904D01*
X56665809Y-61031523D01*
X60269380Y-62364857D02*
X59793190Y-62698190D01*
X60269380Y-62936285D02*
X59269380Y-62936285D01*
X59269380Y-62555333D01*
X59317000Y-62460095D01*
X59364619Y-62412476D01*
X59459857Y-62364857D01*
X59602714Y-62364857D01*
X59697952Y-62412476D01*
X59745571Y-62460095D01*
X59793190Y-62555333D01*
X59793190Y-62936285D01*
X59364619Y-61983904D02*
X59317000Y-61936285D01*
X59269380Y-61841047D01*
X59269380Y-61602952D01*
X59317000Y-61507714D01*
X59364619Y-61460095D01*
X59459857Y-61412476D01*
X59555095Y-61412476D01*
X59697952Y-61460095D01*
X60269380Y-62031523D01*
X60269380Y-61412476D01*
X59269380Y-61079142D02*
X59269380Y-60412476D01*
X60269380Y-60841047D01*
X63444380Y-62364857D02*
X62968190Y-62698190D01*
X63444380Y-62936285D02*
X62444380Y-62936285D01*
X62444380Y-62555333D01*
X62492000Y-62460095D01*
X62539619Y-62412476D01*
X62634857Y-62364857D01*
X62777714Y-62364857D01*
X62872952Y-62412476D01*
X62920571Y-62460095D01*
X62968190Y-62555333D01*
X62968190Y-62936285D01*
X62539619Y-61983904D02*
X62492000Y-61936285D01*
X62444380Y-61841047D01*
X62444380Y-61602952D01*
X62492000Y-61507714D01*
X62539619Y-61460095D01*
X62634857Y-61412476D01*
X62730095Y-61412476D01*
X62872952Y-61460095D01*
X63444380Y-62031523D01*
X63444380Y-61412476D01*
X62872952Y-60841047D02*
X62825333Y-60936285D01*
X62777714Y-60983904D01*
X62682476Y-61031523D01*
X62634857Y-61031523D01*
X62539619Y-60983904D01*
X62492000Y-60936285D01*
X62444380Y-60841047D01*
X62444380Y-60650571D01*
X62492000Y-60555333D01*
X62539619Y-60507714D01*
X62634857Y-60460095D01*
X62682476Y-60460095D01*
X62777714Y-60507714D01*
X62825333Y-60555333D01*
X62872952Y-60650571D01*
X62872952Y-60841047D01*
X62920571Y-60936285D01*
X62968190Y-60983904D01*
X63063428Y-61031523D01*
X63253904Y-61031523D01*
X63349142Y-60983904D01*
X63396761Y-60936285D01*
X63444380Y-60841047D01*
X63444380Y-60650571D01*
X63396761Y-60555333D01*
X63349142Y-60507714D01*
X63253904Y-60460095D01*
X63063428Y-60460095D01*
X62968190Y-60507714D01*
X62920571Y-60555333D01*
X62872952Y-60650571D01*
X100020380Y-84589857D02*
X99544190Y-84923190D01*
X100020380Y-85161285D02*
X99020380Y-85161285D01*
X99020380Y-84780333D01*
X99068000Y-84685095D01*
X99115619Y-84637476D01*
X99210857Y-84589857D01*
X99353714Y-84589857D01*
X99448952Y-84637476D01*
X99496571Y-84685095D01*
X99544190Y-84780333D01*
X99544190Y-85161285D01*
X99115619Y-84208904D02*
X99068000Y-84161285D01*
X99020380Y-84066047D01*
X99020380Y-83827952D01*
X99068000Y-83732714D01*
X99115619Y-83685095D01*
X99210857Y-83637476D01*
X99306095Y-83637476D01*
X99448952Y-83685095D01*
X100020380Y-84256523D01*
X100020380Y-83637476D01*
X100020380Y-83161285D02*
X100020380Y-82970809D01*
X99972761Y-82875571D01*
X99925142Y-82827952D01*
X99782285Y-82732714D01*
X99591809Y-82685095D01*
X99210857Y-82685095D01*
X99115619Y-82732714D01*
X99068000Y-82780333D01*
X99020380Y-82875571D01*
X99020380Y-83066047D01*
X99068000Y-83161285D01*
X99115619Y-83208904D01*
X99210857Y-83256523D01*
X99448952Y-83256523D01*
X99544190Y-83208904D01*
X99591809Y-83161285D01*
X99639428Y-83066047D01*
X99639428Y-82875571D01*
X99591809Y-82780333D01*
X99544190Y-82732714D01*
X99448952Y-82685095D01*
X103322380Y-84589857D02*
X102846190Y-84923190D01*
X103322380Y-85161285D02*
X102322380Y-85161285D01*
X102322380Y-84780333D01*
X102370000Y-84685095D01*
X102417619Y-84637476D01*
X102512857Y-84589857D01*
X102655714Y-84589857D01*
X102750952Y-84637476D01*
X102798571Y-84685095D01*
X102846190Y-84780333D01*
X102846190Y-85161285D01*
X102322380Y-84256523D02*
X102322380Y-83637476D01*
X102703333Y-83970809D01*
X102703333Y-83827952D01*
X102750952Y-83732714D01*
X102798571Y-83685095D01*
X102893809Y-83637476D01*
X103131904Y-83637476D01*
X103227142Y-83685095D01*
X103274761Y-83732714D01*
X103322380Y-83827952D01*
X103322380Y-84113666D01*
X103274761Y-84208904D01*
X103227142Y-84256523D01*
X102322380Y-83018428D02*
X102322380Y-82923190D01*
X102370000Y-82827952D01*
X102417619Y-82780333D01*
X102512857Y-82732714D01*
X102703333Y-82685095D01*
X102941428Y-82685095D01*
X103131904Y-82732714D01*
X103227142Y-82780333D01*
X103274761Y-82827952D01*
X103322380Y-82923190D01*
X103322380Y-83018428D01*
X103274761Y-83113666D01*
X103227142Y-83161285D01*
X103131904Y-83208904D01*
X102941428Y-83256523D01*
X102703333Y-83256523D01*
X102512857Y-83208904D01*
X102417619Y-83161285D01*
X102370000Y-83113666D01*
X102322380Y-83018428D01*
X106624380Y-84589857D02*
X106148190Y-84923190D01*
X106624380Y-85161285D02*
X105624380Y-85161285D01*
X105624380Y-84780333D01*
X105672000Y-84685095D01*
X105719619Y-84637476D01*
X105814857Y-84589857D01*
X105957714Y-84589857D01*
X106052952Y-84637476D01*
X106100571Y-84685095D01*
X106148190Y-84780333D01*
X106148190Y-85161285D01*
X105624380Y-84256523D02*
X105624380Y-83637476D01*
X106005333Y-83970809D01*
X106005333Y-83827952D01*
X106052952Y-83732714D01*
X106100571Y-83685095D01*
X106195809Y-83637476D01*
X106433904Y-83637476D01*
X106529142Y-83685095D01*
X106576761Y-83732714D01*
X106624380Y-83827952D01*
X106624380Y-84113666D01*
X106576761Y-84208904D01*
X106529142Y-84256523D01*
X106624380Y-82685095D02*
X106624380Y-83256523D01*
X106624380Y-82970809D02*
X105624380Y-82970809D01*
X105767238Y-83066047D01*
X105862476Y-83161285D01*
X105910095Y-83256523D01*
X109926380Y-84589857D02*
X109450190Y-84923190D01*
X109926380Y-85161285D02*
X108926380Y-85161285D01*
X108926380Y-84780333D01*
X108974000Y-84685095D01*
X109021619Y-84637476D01*
X109116857Y-84589857D01*
X109259714Y-84589857D01*
X109354952Y-84637476D01*
X109402571Y-84685095D01*
X109450190Y-84780333D01*
X109450190Y-85161285D01*
X108926380Y-84256523D02*
X108926380Y-83637476D01*
X109307333Y-83970809D01*
X109307333Y-83827952D01*
X109354952Y-83732714D01*
X109402571Y-83685095D01*
X109497809Y-83637476D01*
X109735904Y-83637476D01*
X109831142Y-83685095D01*
X109878761Y-83732714D01*
X109926380Y-83827952D01*
X109926380Y-84113666D01*
X109878761Y-84208904D01*
X109831142Y-84256523D01*
X109021619Y-83256523D02*
X108974000Y-83208904D01*
X108926380Y-83113666D01*
X108926380Y-82875571D01*
X108974000Y-82780333D01*
X109021619Y-82732714D01*
X109116857Y-82685095D01*
X109212095Y-82685095D01*
X109354952Y-82732714D01*
X109926380Y-83304142D01*
X109926380Y-82685095D01*
X113228380Y-84589857D02*
X112752190Y-84923190D01*
X113228380Y-85161285D02*
X112228380Y-85161285D01*
X112228380Y-84780333D01*
X112276000Y-84685095D01*
X112323619Y-84637476D01*
X112418857Y-84589857D01*
X112561714Y-84589857D01*
X112656952Y-84637476D01*
X112704571Y-84685095D01*
X112752190Y-84780333D01*
X112752190Y-85161285D01*
X112228380Y-84256523D02*
X112228380Y-83637476D01*
X112609333Y-83970809D01*
X112609333Y-83827952D01*
X112656952Y-83732714D01*
X112704571Y-83685095D01*
X112799809Y-83637476D01*
X113037904Y-83637476D01*
X113133142Y-83685095D01*
X113180761Y-83732714D01*
X113228380Y-83827952D01*
X113228380Y-84113666D01*
X113180761Y-84208904D01*
X113133142Y-84256523D01*
X112228380Y-83304142D02*
X112228380Y-82685095D01*
X112609333Y-83018428D01*
X112609333Y-82875571D01*
X112656952Y-82780333D01*
X112704571Y-82732714D01*
X112799809Y-82685095D01*
X113037904Y-82685095D01*
X113133142Y-82732714D01*
X113180761Y-82780333D01*
X113228380Y-82875571D01*
X113228380Y-83161285D01*
X113180761Y-83256523D01*
X113133142Y-83304142D01*
X25844666Y-58570761D02*
X25987523Y-58618380D01*
X26225619Y-58618380D01*
X26320857Y-58570761D01*
X26368476Y-58523142D01*
X26416095Y-58427904D01*
X26416095Y-58332666D01*
X26368476Y-58237428D01*
X26320857Y-58189809D01*
X26225619Y-58142190D01*
X26035142Y-58094571D01*
X25939904Y-58046952D01*
X25892285Y-57999333D01*
X25844666Y-57904095D01*
X25844666Y-57808857D01*
X25892285Y-57713619D01*
X25939904Y-57666000D01*
X26035142Y-57618380D01*
X26273238Y-57618380D01*
X26416095Y-57666000D01*
X26749428Y-57618380D02*
X26987523Y-58618380D01*
X27178000Y-57904095D01*
X27368476Y-58618380D01*
X27606571Y-57618380D01*
X28511333Y-58618380D02*
X27939904Y-58618380D01*
X28225619Y-58618380D02*
X28225619Y-57618380D01*
X28130380Y-57761238D01*
X28035142Y-57856476D01*
X27939904Y-57904095D01*
X39306666Y-58570761D02*
X39449523Y-58618380D01*
X39687619Y-58618380D01*
X39782857Y-58570761D01*
X39830476Y-58523142D01*
X39878095Y-58427904D01*
X39878095Y-58332666D01*
X39830476Y-58237428D01*
X39782857Y-58189809D01*
X39687619Y-58142190D01*
X39497142Y-58094571D01*
X39401904Y-58046952D01*
X39354285Y-57999333D01*
X39306666Y-57904095D01*
X39306666Y-57808857D01*
X39354285Y-57713619D01*
X39401904Y-57666000D01*
X39497142Y-57618380D01*
X39735238Y-57618380D01*
X39878095Y-57666000D01*
X40211428Y-57618380D02*
X40449523Y-58618380D01*
X40640000Y-57904095D01*
X40830476Y-58618380D01*
X41068571Y-57618380D01*
X41401904Y-57713619D02*
X41449523Y-57666000D01*
X41544761Y-57618380D01*
X41782857Y-57618380D01*
X41878095Y-57666000D01*
X41925714Y-57713619D01*
X41973333Y-57808857D01*
X41973333Y-57904095D01*
X41925714Y-58046952D01*
X41354285Y-58618380D01*
X41973333Y-58618380D01*
X53149666Y-58697761D02*
X53292523Y-58745380D01*
X53530619Y-58745380D01*
X53625857Y-58697761D01*
X53673476Y-58650142D01*
X53721095Y-58554904D01*
X53721095Y-58459666D01*
X53673476Y-58364428D01*
X53625857Y-58316809D01*
X53530619Y-58269190D01*
X53340142Y-58221571D01*
X53244904Y-58173952D01*
X53197285Y-58126333D01*
X53149666Y-58031095D01*
X53149666Y-57935857D01*
X53197285Y-57840619D01*
X53244904Y-57793000D01*
X53340142Y-57745380D01*
X53578238Y-57745380D01*
X53721095Y-57793000D01*
X54054428Y-57745380D02*
X54292523Y-58745380D01*
X54483000Y-58031095D01*
X54673476Y-58745380D01*
X54911571Y-57745380D01*
X55197285Y-57745380D02*
X55816333Y-57745380D01*
X55483000Y-58126333D01*
X55625857Y-58126333D01*
X55721095Y-58173952D01*
X55768714Y-58221571D01*
X55816333Y-58316809D01*
X55816333Y-58554904D01*
X55768714Y-58650142D01*
X55721095Y-58697761D01*
X55625857Y-58745380D01*
X55340142Y-58745380D01*
X55244904Y-58697761D01*
X55197285Y-58650142D01*
X66484666Y-58697761D02*
X66627523Y-58745380D01*
X66865619Y-58745380D01*
X66960857Y-58697761D01*
X67008476Y-58650142D01*
X67056095Y-58554904D01*
X67056095Y-58459666D01*
X67008476Y-58364428D01*
X66960857Y-58316809D01*
X66865619Y-58269190D01*
X66675142Y-58221571D01*
X66579904Y-58173952D01*
X66532285Y-58126333D01*
X66484666Y-58031095D01*
X66484666Y-57935857D01*
X66532285Y-57840619D01*
X66579904Y-57793000D01*
X66675142Y-57745380D01*
X66913238Y-57745380D01*
X67056095Y-57793000D01*
X67389428Y-57745380D02*
X67627523Y-58745380D01*
X67818000Y-58031095D01*
X68008476Y-58745380D01*
X68246571Y-57745380D01*
X69056095Y-58078714D02*
X69056095Y-58745380D01*
X68818000Y-57697761D02*
X68579904Y-58412047D01*
X69198952Y-58412047D01*
X80835666Y-58824761D02*
X80978523Y-58872380D01*
X81216619Y-58872380D01*
X81311857Y-58824761D01*
X81359476Y-58777142D01*
X81407095Y-58681904D01*
X81407095Y-58586666D01*
X81359476Y-58491428D01*
X81311857Y-58443809D01*
X81216619Y-58396190D01*
X81026142Y-58348571D01*
X80930904Y-58300952D01*
X80883285Y-58253333D01*
X80835666Y-58158095D01*
X80835666Y-58062857D01*
X80883285Y-57967619D01*
X80930904Y-57920000D01*
X81026142Y-57872380D01*
X81264238Y-57872380D01*
X81407095Y-57920000D01*
X81740428Y-57872380D02*
X81978523Y-58872380D01*
X82169000Y-58158095D01*
X82359476Y-58872380D01*
X82597571Y-57872380D01*
X83454714Y-57872380D02*
X82978523Y-57872380D01*
X82930904Y-58348571D01*
X82978523Y-58300952D01*
X83073761Y-58253333D01*
X83311857Y-58253333D01*
X83407095Y-58300952D01*
X83454714Y-58348571D01*
X83502333Y-58443809D01*
X83502333Y-58681904D01*
X83454714Y-58777142D01*
X83407095Y-58824761D01*
X83311857Y-58872380D01*
X83073761Y-58872380D01*
X82978523Y-58824761D01*
X82930904Y-58777142D01*
X94678666Y-58824761D02*
X94821523Y-58872380D01*
X95059619Y-58872380D01*
X95154857Y-58824761D01*
X95202476Y-58777142D01*
X95250095Y-58681904D01*
X95250095Y-58586666D01*
X95202476Y-58491428D01*
X95154857Y-58443809D01*
X95059619Y-58396190D01*
X94869142Y-58348571D01*
X94773904Y-58300952D01*
X94726285Y-58253333D01*
X94678666Y-58158095D01*
X94678666Y-58062857D01*
X94726285Y-57967619D01*
X94773904Y-57920000D01*
X94869142Y-57872380D01*
X95107238Y-57872380D01*
X95250095Y-57920000D01*
X95583428Y-57872380D02*
X95821523Y-58872380D01*
X96012000Y-58158095D01*
X96202476Y-58872380D01*
X96440571Y-57872380D01*
X97250095Y-57872380D02*
X97059619Y-57872380D01*
X96964380Y-57920000D01*
X96916761Y-57967619D01*
X96821523Y-58110476D01*
X96773904Y-58300952D01*
X96773904Y-58681904D01*
X96821523Y-58777142D01*
X96869142Y-58824761D01*
X96964380Y-58872380D01*
X97154857Y-58872380D01*
X97250095Y-58824761D01*
X97297714Y-58777142D01*
X97345333Y-58681904D01*
X97345333Y-58443809D01*
X97297714Y-58348571D01*
X97250095Y-58300952D01*
X97154857Y-58253333D01*
X96964380Y-58253333D01*
X96869142Y-58300952D01*
X96821523Y-58348571D01*
X96773904Y-58443809D01*
X25844666Y-44854761D02*
X25987523Y-44902380D01*
X26225619Y-44902380D01*
X26320857Y-44854761D01*
X26368476Y-44807142D01*
X26416095Y-44711904D01*
X26416095Y-44616666D01*
X26368476Y-44521428D01*
X26320857Y-44473809D01*
X26225619Y-44426190D01*
X26035142Y-44378571D01*
X25939904Y-44330952D01*
X25892285Y-44283333D01*
X25844666Y-44188095D01*
X25844666Y-44092857D01*
X25892285Y-43997619D01*
X25939904Y-43950000D01*
X26035142Y-43902380D01*
X26273238Y-43902380D01*
X26416095Y-43950000D01*
X26749428Y-43902380D02*
X26987523Y-44902380D01*
X27178000Y-44188095D01*
X27368476Y-44902380D01*
X27606571Y-43902380D01*
X27892285Y-43902380D02*
X28558952Y-43902380D01*
X28130380Y-44902380D01*
X39306666Y-44854761D02*
X39449523Y-44902380D01*
X39687619Y-44902380D01*
X39782857Y-44854761D01*
X39830476Y-44807142D01*
X39878095Y-44711904D01*
X39878095Y-44616666D01*
X39830476Y-44521428D01*
X39782857Y-44473809D01*
X39687619Y-44426190D01*
X39497142Y-44378571D01*
X39401904Y-44330952D01*
X39354285Y-44283333D01*
X39306666Y-44188095D01*
X39306666Y-44092857D01*
X39354285Y-43997619D01*
X39401904Y-43950000D01*
X39497142Y-43902380D01*
X39735238Y-43902380D01*
X39878095Y-43950000D01*
X40211428Y-43902380D02*
X40449523Y-44902380D01*
X40640000Y-44188095D01*
X40830476Y-44902380D01*
X41068571Y-43902380D01*
X41592380Y-44330952D02*
X41497142Y-44283333D01*
X41449523Y-44235714D01*
X41401904Y-44140476D01*
X41401904Y-44092857D01*
X41449523Y-43997619D01*
X41497142Y-43950000D01*
X41592380Y-43902380D01*
X41782857Y-43902380D01*
X41878095Y-43950000D01*
X41925714Y-43997619D01*
X41973333Y-44092857D01*
X41973333Y-44140476D01*
X41925714Y-44235714D01*
X41878095Y-44283333D01*
X41782857Y-44330952D01*
X41592380Y-44330952D01*
X41497142Y-44378571D01*
X41449523Y-44426190D01*
X41401904Y-44521428D01*
X41401904Y-44711904D01*
X41449523Y-44807142D01*
X41497142Y-44854761D01*
X41592380Y-44902380D01*
X41782857Y-44902380D01*
X41878095Y-44854761D01*
X41925714Y-44807142D01*
X41973333Y-44711904D01*
X41973333Y-44521428D01*
X41925714Y-44426190D01*
X41878095Y-44378571D01*
X41782857Y-44330952D01*
X53149666Y-44981761D02*
X53292523Y-45029380D01*
X53530619Y-45029380D01*
X53625857Y-44981761D01*
X53673476Y-44934142D01*
X53721095Y-44838904D01*
X53721095Y-44743666D01*
X53673476Y-44648428D01*
X53625857Y-44600809D01*
X53530619Y-44553190D01*
X53340142Y-44505571D01*
X53244904Y-44457952D01*
X53197285Y-44410333D01*
X53149666Y-44315095D01*
X53149666Y-44219857D01*
X53197285Y-44124619D01*
X53244904Y-44077000D01*
X53340142Y-44029380D01*
X53578238Y-44029380D01*
X53721095Y-44077000D01*
X54054428Y-44029380D02*
X54292523Y-45029380D01*
X54483000Y-44315095D01*
X54673476Y-45029380D01*
X54911571Y-44029380D01*
X55340142Y-45029380D02*
X55530619Y-45029380D01*
X55625857Y-44981761D01*
X55673476Y-44934142D01*
X55768714Y-44791285D01*
X55816333Y-44600809D01*
X55816333Y-44219857D01*
X55768714Y-44124619D01*
X55721095Y-44077000D01*
X55625857Y-44029380D01*
X55435380Y-44029380D01*
X55340142Y-44077000D01*
X55292523Y-44124619D01*
X55244904Y-44219857D01*
X55244904Y-44457952D01*
X55292523Y-44553190D01*
X55340142Y-44600809D01*
X55435380Y-44648428D01*
X55625857Y-44648428D01*
X55721095Y-44600809D01*
X55768714Y-44553190D01*
X55816333Y-44457952D01*
X66008476Y-44981761D02*
X66151333Y-45029380D01*
X66389428Y-45029380D01*
X66484666Y-44981761D01*
X66532285Y-44934142D01*
X66579904Y-44838904D01*
X66579904Y-44743666D01*
X66532285Y-44648428D01*
X66484666Y-44600809D01*
X66389428Y-44553190D01*
X66198952Y-44505571D01*
X66103714Y-44457952D01*
X66056095Y-44410333D01*
X66008476Y-44315095D01*
X66008476Y-44219857D01*
X66056095Y-44124619D01*
X66103714Y-44077000D01*
X66198952Y-44029380D01*
X66437047Y-44029380D01*
X66579904Y-44077000D01*
X66913238Y-44029380D02*
X67151333Y-45029380D01*
X67341809Y-44315095D01*
X67532285Y-45029380D01*
X67770380Y-44029380D01*
X68675142Y-45029380D02*
X68103714Y-45029380D01*
X68389428Y-45029380D02*
X68389428Y-44029380D01*
X68294190Y-44172238D01*
X68198952Y-44267476D01*
X68103714Y-44315095D01*
X69294190Y-44029380D02*
X69389428Y-44029380D01*
X69484666Y-44077000D01*
X69532285Y-44124619D01*
X69579904Y-44219857D01*
X69627523Y-44410333D01*
X69627523Y-44648428D01*
X69579904Y-44838904D01*
X69532285Y-44934142D01*
X69484666Y-44981761D01*
X69389428Y-45029380D01*
X69294190Y-45029380D01*
X69198952Y-44981761D01*
X69151333Y-44934142D01*
X69103714Y-44838904D01*
X69056095Y-44648428D01*
X69056095Y-44410333D01*
X69103714Y-44219857D01*
X69151333Y-44124619D01*
X69198952Y-44077000D01*
X69294190Y-44029380D01*
X80232476Y-45108761D02*
X80375333Y-45156380D01*
X80613428Y-45156380D01*
X80708666Y-45108761D01*
X80756285Y-45061142D01*
X80803904Y-44965904D01*
X80803904Y-44870666D01*
X80756285Y-44775428D01*
X80708666Y-44727809D01*
X80613428Y-44680190D01*
X80422952Y-44632571D01*
X80327714Y-44584952D01*
X80280095Y-44537333D01*
X80232476Y-44442095D01*
X80232476Y-44346857D01*
X80280095Y-44251619D01*
X80327714Y-44204000D01*
X80422952Y-44156380D01*
X80661047Y-44156380D01*
X80803904Y-44204000D01*
X81137238Y-44156380D02*
X81375333Y-45156380D01*
X81565809Y-44442095D01*
X81756285Y-45156380D01*
X81994380Y-44156380D01*
X82899142Y-45156380D02*
X82327714Y-45156380D01*
X82613428Y-45156380D02*
X82613428Y-44156380D01*
X82518190Y-44299238D01*
X82422952Y-44394476D01*
X82327714Y-44442095D01*
X83851523Y-45156380D02*
X83280095Y-45156380D01*
X83565809Y-45156380D02*
X83565809Y-44156380D01*
X83470571Y-44299238D01*
X83375333Y-44394476D01*
X83280095Y-44442095D01*
X94202476Y-45108761D02*
X94345333Y-45156380D01*
X94583428Y-45156380D01*
X94678666Y-45108761D01*
X94726285Y-45061142D01*
X94773904Y-44965904D01*
X94773904Y-44870666D01*
X94726285Y-44775428D01*
X94678666Y-44727809D01*
X94583428Y-44680190D01*
X94392952Y-44632571D01*
X94297714Y-44584952D01*
X94250095Y-44537333D01*
X94202476Y-44442095D01*
X94202476Y-44346857D01*
X94250095Y-44251619D01*
X94297714Y-44204000D01*
X94392952Y-44156380D01*
X94631047Y-44156380D01*
X94773904Y-44204000D01*
X95107238Y-44156380D02*
X95345333Y-45156380D01*
X95535809Y-44442095D01*
X95726285Y-45156380D01*
X95964380Y-44156380D01*
X96869142Y-45156380D02*
X96297714Y-45156380D01*
X96583428Y-45156380D02*
X96583428Y-44156380D01*
X96488190Y-44299238D01*
X96392952Y-44394476D01*
X96297714Y-44442095D01*
X97250095Y-44251619D02*
X97297714Y-44204000D01*
X97392952Y-44156380D01*
X97631047Y-44156380D01*
X97726285Y-44204000D01*
X97773904Y-44251619D01*
X97821523Y-44346857D01*
X97821523Y-44442095D01*
X97773904Y-44584952D01*
X97202476Y-45156380D01*
X97821523Y-45156380D01*
X25368476Y-30884761D02*
X25511333Y-30932380D01*
X25749428Y-30932380D01*
X25844666Y-30884761D01*
X25892285Y-30837142D01*
X25939904Y-30741904D01*
X25939904Y-30646666D01*
X25892285Y-30551428D01*
X25844666Y-30503809D01*
X25749428Y-30456190D01*
X25558952Y-30408571D01*
X25463714Y-30360952D01*
X25416095Y-30313333D01*
X25368476Y-30218095D01*
X25368476Y-30122857D01*
X25416095Y-30027619D01*
X25463714Y-29980000D01*
X25558952Y-29932380D01*
X25797047Y-29932380D01*
X25939904Y-29980000D01*
X26273238Y-29932380D02*
X26511333Y-30932380D01*
X26701809Y-30218095D01*
X26892285Y-30932380D01*
X27130380Y-29932380D01*
X28035142Y-30932380D02*
X27463714Y-30932380D01*
X27749428Y-30932380D02*
X27749428Y-29932380D01*
X27654190Y-30075238D01*
X27558952Y-30170476D01*
X27463714Y-30218095D01*
X28368476Y-29932380D02*
X28987523Y-29932380D01*
X28654190Y-30313333D01*
X28797047Y-30313333D01*
X28892285Y-30360952D01*
X28939904Y-30408571D01*
X28987523Y-30503809D01*
X28987523Y-30741904D01*
X28939904Y-30837142D01*
X28892285Y-30884761D01*
X28797047Y-30932380D01*
X28511333Y-30932380D01*
X28416095Y-30884761D01*
X28368476Y-30837142D01*
X38830476Y-30884761D02*
X38973333Y-30932380D01*
X39211428Y-30932380D01*
X39306666Y-30884761D01*
X39354285Y-30837142D01*
X39401904Y-30741904D01*
X39401904Y-30646666D01*
X39354285Y-30551428D01*
X39306666Y-30503809D01*
X39211428Y-30456190D01*
X39020952Y-30408571D01*
X38925714Y-30360952D01*
X38878095Y-30313333D01*
X38830476Y-30218095D01*
X38830476Y-30122857D01*
X38878095Y-30027619D01*
X38925714Y-29980000D01*
X39020952Y-29932380D01*
X39259047Y-29932380D01*
X39401904Y-29980000D01*
X39735238Y-29932380D02*
X39973333Y-30932380D01*
X40163809Y-30218095D01*
X40354285Y-30932380D01*
X40592380Y-29932380D01*
X41497142Y-30932380D02*
X40925714Y-30932380D01*
X41211428Y-30932380D02*
X41211428Y-29932380D01*
X41116190Y-30075238D01*
X41020952Y-30170476D01*
X40925714Y-30218095D01*
X42354285Y-30265714D02*
X42354285Y-30932380D01*
X42116190Y-29884761D02*
X41878095Y-30599047D01*
X42497142Y-30599047D01*
X52673476Y-31011761D02*
X52816333Y-31059380D01*
X53054428Y-31059380D01*
X53149666Y-31011761D01*
X53197285Y-30964142D01*
X53244904Y-30868904D01*
X53244904Y-30773666D01*
X53197285Y-30678428D01*
X53149666Y-30630809D01*
X53054428Y-30583190D01*
X52863952Y-30535571D01*
X52768714Y-30487952D01*
X52721095Y-30440333D01*
X52673476Y-30345095D01*
X52673476Y-30249857D01*
X52721095Y-30154619D01*
X52768714Y-30107000D01*
X52863952Y-30059380D01*
X53102047Y-30059380D01*
X53244904Y-30107000D01*
X53578238Y-30059380D02*
X53816333Y-31059380D01*
X54006809Y-30345095D01*
X54197285Y-31059380D01*
X54435380Y-30059380D01*
X55340142Y-31059380D02*
X54768714Y-31059380D01*
X55054428Y-31059380D02*
X55054428Y-30059380D01*
X54959190Y-30202238D01*
X54863952Y-30297476D01*
X54768714Y-30345095D01*
X56244904Y-30059380D02*
X55768714Y-30059380D01*
X55721095Y-30535571D01*
X55768714Y-30487952D01*
X55863952Y-30440333D01*
X56102047Y-30440333D01*
X56197285Y-30487952D01*
X56244904Y-30535571D01*
X56292523Y-30630809D01*
X56292523Y-30868904D01*
X56244904Y-30964142D01*
X56197285Y-31011761D01*
X56102047Y-31059380D01*
X55863952Y-31059380D01*
X55768714Y-31011761D01*
X55721095Y-30964142D01*
M02*
